<svg width="41" height="41" viewBox="0 0 41 41" fill="none" xmlns="http://www.w3.org/2000/svg">
<g id="Group 1">
<g id="Group">
<path id="Vector" opacity="0.984" fill-rule="evenodd" clip-rule="evenodd" d="M20.0963 0C20.656 0 21.2157 0 21.7754 0C28.8436 0.583754 34.2595 3.9027 38.023 9.95682C41.4233 16.057 41.6866 22.2966 38.8131 28.6757C38.764 28.9057 38.7476 29.1379 38.7637 29.3726C39.2259 29.3561 39.6867 29.3727 40.1465 29.4224C40.9936 29.7758 41.1582 30.34 40.6404 31.1151C39.1165 31.607 37.5691 32.0219 35.9982 32.3597C35.5033 32.375 35.1905 32.1427 35.0599 31.6627C34.6521 30.1854 34.3557 28.6919 34.171 27.1821C34.3986 26.4561 34.876 26.2072 35.6031 26.4354C35.7795 26.5135 35.9277 26.6296 36.0476 26.7839C36.1756 27.2668 36.3402 27.7314 36.5414 28.1778C37.686 26.2861 38.3445 24.2283 38.5168 22.0046C38.8739 15.009 36.2895 9.41661 30.7634 5.22733C24.6345 1.41981 18.3791 1.22068 11.9972 4.62992C11.0814 5.18827 10.1925 5.78568 9.33043 6.42215C8.11485 6.65714 7.63746 6.1759 7.89827 4.97841C8.07539 4.70009 8.28938 4.45117 8.54027 4.23165C11.9842 1.686 15.8362 0.275446 20.0963 0Z" fill="#03C988"/>
</g>
<g id="Group_2">
<path id="Vector_2" opacity="0.98" fill-rule="evenodd" clip-rule="evenodd" d="M20.4914 6.57185C20.8024 6.54312 21.0987 6.5929 21.3803 6.7212C24.2537 9.77385 26.4432 13.2753 27.9485 17.2257C29.4231 21.6598 28.2544 25.1613 24.4422 27.7301C23.7632 28.1221 23.0719 28.4871 22.368 28.8254C21.8362 29.2449 21.5398 29.7926 21.4791 30.4682C21.5828 31.3627 21.5993 32.2588 21.5285 33.1566C21.3221 33.7333 20.9434 33.8826 20.3926 33.6046C20.1964 33.4733 20.0811 33.2908 20.0469 33.057C20.0405 32.3282 20.057 31.598 20.0963 30.8665C20.305 29.9797 20.0416 29.2992 19.3062 28.8254C14.205 26.755 12.3119 23.0212 13.6269 17.6239C14.0657 16.1647 14.6583 14.7707 15.4048 13.4421C16.5581 11.5145 17.8092 9.65592 19.158 7.86624C19.5921 7.41178 20.0366 6.98031 20.4914 6.57185ZM19.8988 9.65847C19.9937 11.2695 20.0431 12.8957 20.0469 14.5373C20.0141 14.6037 19.9811 14.67 19.9482 14.7365C19.639 14.5246 19.3592 14.2756 19.1086 13.9897C18.1322 13.9205 17.8524 14.3354 18.2691 15.2343C18.7927 15.6624 19.2865 16.127 19.7506 16.6282C19.8928 16.805 19.9915 17.0041 20.0469 17.2257C20.2394 18.624 20.223 20.0179 19.9976 21.4075C19.1745 20.6939 18.3514 19.9804 17.5283 19.2668C16.6854 19.2228 16.4056 19.6044 16.6888 20.4118C17.5472 21.3767 18.4361 22.3059 19.3556 23.1998C20.0171 24.1127 20.297 25.1415 20.1951 26.2864C20.1944 26.5942 20.145 26.8929 20.0469 27.1825C19.974 27.2894 19.8752 27.3558 19.7506 27.3816C15.7006 25.748 14.1203 22.761 15.0097 18.4205C15.8485 15.0354 17.4781 12.1147 19.8988 9.65847ZM21.7754 9.65847C24.0377 12.1267 25.6674 14.9809 26.6645 18.2213C27.474 22.497 25.9267 25.5504 22.0223 27.3816C21.7828 27.3058 21.6512 27.1399 21.6273 26.8838C21.5493 26.3126 21.5822 25.7484 21.726 25.1911C22.8812 24.0598 24.0007 22.8982 25.0842 21.7062C25.2993 20.8938 24.9865 20.5453 24.1459 20.6608C23.3704 21.3928 22.5803 22.1064 21.7754 22.8015C21.5464 21.3788 21.53 19.9517 21.726 18.52C22.2729 17.7687 22.8984 17.0717 23.6026 16.4291C23.7664 16.0882 23.7335 15.7562 23.5039 15.4334C23.2033 15.1937 22.8906 15.1771 22.5656 15.3836C22.315 15.6696 22.0352 15.9185 21.726 16.1304C21.7539 13.9743 21.7704 11.8169 21.7754 9.65847Z" fill="#03C988"/>
</g>
<g id="Group_3">
<path id="Vector_3" opacity="0.985" fill-rule="evenodd" clip-rule="evenodd" d="M22.8619 40.1264C21.6108 40.1264 20.3597 40.1264 19.1086 40.1264C11.4289 39.0082 5.94724 34.8928 2.66352 27.7799C0.780381 23.1202 0.648688 18.4074 2.26845 13.6412C2.58159 12.8268 2.89436 12.0136 3.20676 11.2018C3.21275 11.0314 3.14691 10.8987 3.00922 10.8035C2.08022 11.0643 1.38883 10.7821 0.935059 9.9572C0.935059 9.82445 0.935059 9.69168 0.935059 9.55893C1.05225 9.27618 1.24979 9.06045 1.52768 8.91173C2.88117 8.59552 4.23101 8.26362 5.57722 7.91605C6.22661 7.72072 6.67107 7.93644 6.91061 8.56325C7.21572 9.94288 7.52849 11.3203 7.84892 12.6953C7.74343 13.5985 7.24959 13.9636 6.36738 13.7906C6.15761 13.6789 5.97654 13.5295 5.82415 13.3425C5.73787 12.9408 5.6391 12.5425 5.52784 12.1477C5.48695 12.1022 5.43756 12.0689 5.37968 12.0481C4.27657 13.8411 3.63457 15.7992 3.45368 17.9227C2.98644 24.8289 5.43922 30.4213 10.812 34.6999C15.9466 38.1805 21.4448 38.8775 27.3065 36.7909C29.1559 36.1082 30.8349 35.1458 32.3437 33.9034C33.2738 33.4242 33.8994 33.6732 34.2204 34.6501C34.1524 35.0194 34.0043 35.3514 33.7759 35.6458C30.5614 38.1809 26.9235 39.6744 22.8619 40.1264Z" fill="#03C988"/>
</g>
</g>
</svg>

