<svg width="137" height="14" viewBox="0 0 137 14" fill="none" xmlns="http://www.w3.org/2000/svg">
<g id="Group 6">
<g id="Group">
<path id="Vector" opacity="0.985" fill-rule="evenodd" clip-rule="evenodd" d="M1.46712 0.283775C4.94769 0.275089 8.42821 0.283775 11.9087 0.30983C12.9544 0.400536 13.9021 0.747932 14.7517 1.35201C15.9199 2.47992 16.2042 3.8087 15.6046 5.33837C15.3462 5.96362 14.9241 6.44131 14.3382 6.77137C15.9044 7.55759 16.585 8.83427 16.38 10.6014C16.1664 11.8573 15.4858 12.7518 14.3382 13.285C14.0367 13.4037 13.7266 13.4905 13.4078 13.5456C9.46203 13.5803 5.51624 13.5803 1.5705 13.5456C1.31856 13.5447 1.13764 13.4318 1.02774 13.2069C0.993267 12.7552 0.993267 12.3036 1.02774 11.852C1.09241 11.7019 1.20437 11.6064 1.36374 11.5654C5.06947 11.5641 8.77402 11.5294 12.4773 11.4612C13.8209 11.0879 14.312 10.2281 13.9505 8.88179C13.6761 8.36179 13.2539 8.04044 12.6841 7.91777C9.65153 7.88301 6.61902 7.88301 3.58646 7.91777C3.45428 7.95346 3.35948 8.03163 3.30215 8.15226C3.28494 8.60389 3.26768 9.05547 3.25046 9.5071C3.15597 9.71585 2.99227 9.82877 2.7594 9.84581C2.20424 9.89417 1.65285 9.87681 1.10528 9.7937C1.02392 9.69855 0.980861 9.58563 0.976054 9.45499C0.941576 6.57163 0.941576 3.68822 0.976054 0.804867C1.04398 0.536703 1.20768 0.363002 1.46712 0.283775ZM3.43138 2.52447C6.39504 2.51577 9.3587 2.52447 12.3223 2.55052C13.2489 2.81164 13.7055 3.42825 13.6921 4.4004C13.5558 5.19778 13.0992 5.69281 12.3223 5.88551C9.35865 5.92027 6.39499 5.92027 3.43138 5.88551C3.40554 5.85946 3.37969 5.8334 3.35385 5.80735C3.31937 4.74781 3.31937 3.68822 3.35385 2.62869C3.39091 2.60034 3.41675 2.56558 3.43138 2.52447Z" fill="#03C988"/>
</g>
<g id="Group_2">
<path id="Vector_2" opacity="0.991" fill-rule="evenodd" clip-rule="evenodd" d="M45.7666 0.335916C48.467 0.244199 50.8019 1.11269 52.7708 2.94138C52.8721 3.09577 52.9925 3.2347 53.1326 3.35825C53.2158 3.59498 53.1383 3.74261 52.9 3.80118C52.4425 3.96641 51.9861 4.13139 51.5302 4.29621C51.1394 4.14598 50.8034 3.91149 50.5222 3.59274C48.3543 2.17474 46.0458 1.87944 43.5956 2.70688C41.055 3.8599 40.1163 5.79665 40.7784 8.51706C41.4571 9.98232 42.5685 10.9463 44.1125 11.4091C46.8015 12.0558 49.1963 11.4826 51.2976 9.68952C51.4356 9.65476 51.5731 9.65476 51.7111 9.68952C52.1551 9.92619 52.5775 10.1954 52.9775 10.4972C53.0034 10.5493 53.0292 10.6014 53.0551 10.6535C53.0049 10.7645 52.945 10.8687 52.8742 10.9662C50.5015 13.2626 47.6844 14.1224 44.4227 13.5456C42.2842 13.1765 40.5696 12.1257 39.2794 10.393C37.9044 8.05944 37.939 5.74923 39.3828 3.46247C40.5303 1.98413 42.0211 1.03748 43.8541 0.622517C44.4935 0.48783 45.1314 0.392293 45.7666 0.335916Z" fill="#03C988"/>
</g>
<g id="Group_3">
<path id="Vector_3" opacity="0.992" fill-rule="evenodd" clip-rule="evenodd" d="M20.3861 0.388017C20.8861 0.379341 21.3857 0.388028 21.8851 0.414072C22.0173 0.449782 22.1121 0.527946 22.1694 0.648563C22.2347 1.37524 22.2692 2.10475 22.2728 2.83715C22.29 4.78254 22.3073 6.72798 22.3245 8.67338C22.5628 9.93869 23.2951 10.7637 24.5214 11.1486C26.4394 11.6846 28.3522 11.6672 30.2591 11.0965C31.7349 10.5436 32.4244 9.47534 32.3267 7.89174C32.3531 5.49336 32.396 3.09634 32.456 0.700672C32.5165 0.570399 32.611 0.474868 32.7403 0.414072C33.2954 0.365694 33.847 0.383062 34.3944 0.466181C34.5117 0.547352 34.5717 0.660257 34.5753 0.804891C34.6006 3.48007 34.6177 6.15504 34.627 8.8297C34.5262 10.2924 33.863 11.4127 32.6369 12.1907C31.6579 12.7687 30.607 13.1509 29.4837 13.3371C27.0889 13.7753 24.7801 13.4974 22.5571 12.5034C21.413 11.9755 20.6291 11.1157 20.2052 9.924C20.1371 9.68429 20.0854 9.44115 20.0501 9.19447C20.0068 6.3454 20.024 3.49675 20.1018 0.648563C20.1717 0.53137 20.2664 0.444525 20.3861 0.388017Z" fill="#03C988"/>
</g>
<g id="Group 2">
<g id="Group_4">
<path id="Vector_4" opacity="0.994" fill-rule="evenodd" clip-rule="evenodd" d="M91.4099 0.336018C92.0995 0.327337 92.7885 0.336024 93.4776 0.362073C93.6347 0.415818 93.7639 0.51135 93.8653 0.648673C93.9164 4.89114 93.8994 9.12934 93.8136 13.3633C93.751 13.444 93.6735 13.5048 93.581 13.5457C93.047 13.5805 92.5125 13.5805 91.9785 13.5457C91.8493 13.4849 91.7547 13.3894 91.6942 13.2591C91.6684 9.87205 91.6596 6.48495 91.6684 3.09781C91.5371 3.14825 91.4249 3.23511 91.3324 3.35835C89.1784 6.02478 87.0157 8.68235 84.8452 11.3311C83.1357 9.23449 81.4558 7.11537 79.8053 4.97374C79.7686 4.05302 79.7515 3.13241 79.7536 2.21195C79.7851 2.08001 79.8627 2.0366 79.9862 2.08168C81.4987 3.91889 82.9719 5.78612 84.4058 7.68341C84.518 7.79633 84.6296 7.9092 84.7418 8.02212C84.8281 8.05688 84.9139 8.05688 85.0002 8.02212C85.1863 7.84922 85.3672 7.66684 85.543 7.47498C87.2783 5.27847 89.0016 3.07253 90.7121 0.85711C90.8987 0.606554 91.1313 0.432858 91.4099 0.336018Z" fill="#03C988"/>
</g>
<g id="Group_5">
<path id="Vector_5" opacity="0.996" fill-rule="evenodd" clip-rule="evenodd" d="M76.316 0.335956C76.837 0.313893 77.354 0.339948 77.8667 0.41412C77.9639 0.494519 78.0415 0.590051 78.0993 0.700721C78.134 4.88681 78.134 9.07295 78.0993 13.259C78.0389 13.3893 77.9443 13.4848 77.815 13.5456C77.2811 13.5804 76.7466 13.5804 76.2126 13.5456C76.0834 13.4848 75.9888 13.3893 75.9283 13.259C75.8937 9.07295 75.8937 4.88681 75.9283 0.700721C76.0198 0.530219 76.149 0.408633 76.316 0.335956Z" fill="#03C988"/>
</g>
</g>
<g id="Group_6">
<path id="Vector_6" opacity="0.975" fill-rule="evenodd" clip-rule="evenodd" d="M98.1294 0.335769C98.5776 0.327098 99.0257 0.335779 99.4734 0.361824C99.7008 0.399848 99.8471 0.530121 99.9128 0.752643C99.9474 4.88662 99.9474 9.02065 99.9128 13.1546C99.8569 13.3325 99.7453 13.4627 99.5768 13.5454C99.0599 13.5802 98.5429 13.5802 98.026 13.5454C97.8451 13.502 97.7329 13.3891 97.69 13.2067C97.6554 9.05536 97.6554 4.90402 97.69 0.752643C97.7645 0.529511 97.9113 0.390551 98.1294 0.335769Z" fill="#03C988"/>
</g>
<g id="Group 3">
<g id="Group_7">
<path id="Vector_7" opacity="0.993" fill-rule="evenodd" clip-rule="evenodd" d="M104.022 0.335769C104.471 0.327098 104.919 0.335779 105.366 0.361824C105.599 0.422619 105.745 0.57026 105.806 0.804752C105.84 4.90402 105.84 9.00325 105.806 13.1025C105.771 13.3109 105.66 13.4585 105.47 13.5454C104.936 13.5802 104.401 13.5802 103.867 13.5454C103.738 13.4846 103.644 13.3891 103.583 13.2588C103.548 9.07276 103.548 4.88662 103.583 0.700533C103.679 0.50998 103.825 0.388394 104.022 0.335769Z" fill="#03C988"/>
</g>
<g id="Group_8">
<path id="Vector_8" opacity="0.995" fill-rule="evenodd" clip-rule="evenodd" d="M116.687 0.335769C117.135 0.327098 117.583 0.335779 118.031 0.361824C118.258 0.399848 118.404 0.530121 118.47 0.752642C118.505 4.88662 118.505 9.02065 118.47 13.1546C118.414 13.3325 118.303 13.4627 118.134 13.5454C116.634 13.8347 115.385 13.4091 114.386 12.2688C113.751 11.5064 113.096 10.7595 112.422 10.0281C110.744 8.27627 109.09 6.50456 107.46 4.71294C107.434 3.75778 107.425 2.80241 107.434 1.84694C107.505 1.83875 107.574 1.84746 107.641 1.87299C110.427 4.78568 113.175 7.72985 115.885 10.7055C115.982 10.7951 116.094 10.8472 116.221 10.8618C116.213 7.49203 116.221 4.12233 116.247 0.752642C116.322 0.529511 116.469 0.390551 116.687 0.335769Z" fill="#03C988"/>
</g>
</g>
<g id="Group 4">
<g id="Group_9">
<path id="Vector_9" opacity="0.994" fill-rule="evenodd" clip-rule="evenodd" d="M136.795 0.857031C136.795 1.20443 136.795 1.55182 136.795 1.89921C136.757 2.12052 136.637 2.28555 136.433 2.39425C131.764 2.42901 127.094 2.42901 122.425 2.39425C122.299 2.30759 122.205 2.19473 122.14 2.05554C122.106 1.60393 122.106 1.15232 122.14 0.700703C122.181 0.540066 122.276 0.427161 122.425 0.361993C127.094 0.327252 131.764 0.327252 136.433 0.361993C136.637 0.470709 136.757 0.635723 136.795 0.857031Z" fill="#03C988"/>
</g>
<g id="Group_10">
<path id="Vector_10" opacity="0.992" fill-rule="evenodd" clip-rule="evenodd" d="M128.783 4.08771C129.266 4.07906 129.748 4.08771 130.23 4.11377C130.437 4.14858 130.583 4.2615 130.669 4.45248C130.704 7.37059 130.704 10.2887 130.669 13.2068C130.627 13.3892 130.514 13.5021 130.333 13.5455C129.782 13.5803 129.231 13.5803 128.679 13.5455C128.498 13.5021 128.386 13.3892 128.343 13.2068C128.309 10.2887 128.309 7.37059 128.343 4.45248C128.439 4.26192 128.585 4.14035 128.783 4.08771Z" fill="#03C988"/>
</g>
</g>
<g id="Group 5">
<g id="Group_11">
<path id="Vector_11" opacity="0.992" fill-rule="evenodd" clip-rule="evenodd" d="M69.2342 0.283691C69.8224 0.295025 70.4081 0.338448 70.9917 0.413964C71.0744 0.428211 71.1519 0.454266 71.2243 0.492128C71.2631 0.551272 71.2543 0.603381 71.1984 0.648456C67.2198 3.62603 63.2478 6.6136 59.2836 9.61123C59.2666 10.775 59.249 11.9388 59.2319 13.1025C59.1973 13.3109 59.0857 13.4586 58.896 13.5455C58.3222 13.5952 57.7536 13.5778 57.1901 13.4934C57.11 13.4301 57.0495 13.3519 57.0092 13.2589C56.9581 9.03381 56.9751 4.81297 57.0609 0.596346C57.1519 0.452108 57.2811 0.373945 57.4486 0.361855C57.8968 0.327114 58.3444 0.327114 58.7926 0.361855C58.9544 0.412891 59.0836 0.508423 59.1803 0.648456C59.248 2.79989 59.2826 4.95372 59.2836 7.10999C62.2212 4.91271 65.1594 2.71547 68.097 0.518183C68.4712 0.383293 68.8501 0.305129 69.2342 0.283691Z" fill="#03C988"/>
</g>
<g id="Group_12">
<path id="Vector_12" opacity="0.992" fill-rule="evenodd" clip-rule="evenodd" d="M65.6676 6.43262C65.9659 6.5496 66.2155 6.74063 66.4171 7.00582C68.2589 9.08841 70.1198 11.1554 71.9998 13.2068C72.0871 13.3219 72.0783 13.4174 71.9739 13.4934C71.1308 13.5713 70.2867 13.5887 69.4411 13.5455C69.3723 13.5108 69.303 13.4761 69.2343 13.4413C67.5047 11.5063 65.7555 9.58694 63.9876 7.68324C63.9556 7.63379 63.9644 7.59038 64.0135 7.55296C64.5625 7.16256 65.114 6.78915 65.6676 6.43262Z" fill="#03C988"/>
</g>
</g>
</g>
</svg>
