<?xml version="1.0" standalone="no"?>
<!DOCTYPE svg PUBLIC "-//W3C//DTD SVG 20010904//EN"
 "http://www.w3.org/TR/2001/REC-SVG-20010904/DTD/svg10.dtd">
<svg version="1.0" xmlns="http://www.w3.org/2000/svg"
 width="702.000000pt" height="698.000000pt" viewBox="0 0 702.000000 698.000000"
 preserveAspectRatio="xMidYMid meet">

<g transform="translate(0.000000,698.000000) scale(0.100000,-0.100000)"
fill="#000000" stroke="none">
<path d="M3340 6580 c0 -3 -43 -6 -96 -7 -54 -2 -103 -8 -110 -13 -8 -8 -14
-8 -19 0 -8 13 -45 13 -45 -1 0 -7 -17 -9 -51 -5 -36 5 -48 3 -43 -5 4 -8 -3
-9 -27 -4 -26 5 -30 4 -19 -5 12 -8 8 -9 -15 -4 -16 4 -32 7 -35 6 -45 0 -60
-4 -55 -11 3 -6 -9 -7 -31 -4 -21 4 -35 2 -32 -3 4 -5 -6 -10 -20 -11 -41 -3
-81 -10 -149 -27 -34 -9 -76 -18 -92 -21 -16 -3 -41 -9 -54 -14 -14 -6 -28 -7
-31 -4 -3 4 -6 1 -6 -6 0 -7 -4 -10 -9 -6 -5 3 -12 1 -16 -5 -4 -6 -11 -8 -16
-4 -6 3 -22 2 -37 -4 -15 -5 -46 -15 -69 -22 -24 -7 -43 -17 -43 -21 0 -4 -8
-5 -19 -2 -10 2 -24 -1 -32 -9 -8 -7 -25 -15 -39 -17 -14 -1 -28 -8 -32 -15
-4 -6 -8 -7 -8 -2 0 4 -11 1 -25 -8 -14 -9 -25 -14 -25 -11 0 3 -19 -5 -42
-17 -24 -12 -50 -23 -58 -24 -8 -2 -16 -8 -18 -14 -2 -5 -8 -8 -13 -4 -5 3 -9
0 -9 -5 0 -6 -3 -10 -7 -9 -11 2 -67 -25 -75 -37 -4 -5 -8 -6 -8 -2 0 11 -100
-44 -100 -55 0 -5 -4 -7 -9 -4 -5 4 -23 -6 -40 -20 -17 -14 -31 -22 -31 -18 0
4 -9 -2 -20 -14 -12 -12 -27 -22 -35 -22 -8 0 -19 -8 -24 -17 -6 -10 -11 -15
-11 -10 0 11 -61 -29 -106 -70 -14 -13 -27 -23 -30 -23 -20 0 -245 -196 -309
-271 -22 -25 -43 -44 -47 -42 -5 2 -8 -3 -8 -11 0 -9 -5 -16 -10 -16 -6 0 -14
-8 -17 -17 -4 -10 -17 -26 -29 -35 -12 -10 -47 -51 -79 -93 -32 -41 -61 -75
-66 -75 -6 0 -22 -33 -24 -50 0 -3 -10 -16 -23 -30 -12 -13 -22 -28 -22 -33 0
-6 -7 -15 -16 -21 -18 -13 -59 -82 -103 -173 -17 -35 -35 -63 -41 -63 -5 0 -7
-7 -4 -15 4 -8 1 -15 -6 -15 -6 0 -8 -4 -5 -10 3 -5 1 -10 -4 -10 -6 0 -11 -6
-11 -12 0 -7 -9 -24 -19 -37 -10 -14 -17 -31 -14 -38 3 -7 0 -13 -6 -13 -6 0
-10 -3 -9 -7 1 -5 -11 -35 -26 -68 -15 -33 -28 -68 -29 -77 -1 -10 -5 -18 -9
-18 -4 0 -7 -3 -6 -7 1 -5 -3 -18 -10 -30 -7 -12 -12 -26 -11 -30 1 -4 0 -11
-1 -15 -1 -5 -3 -11 -4 -15 -1 -5 -7 -17 -13 -29 -7 -11 -13 -31 -15 -45 -2
-13 -7 -30 -11 -36 -5 -7 -5 -17 -2 -23 3 -5 2 -10 -2 -10 -11 0 -34 -100 -26
-113 3 -6 1 -7 -5 -3 -11 7 -16 -16 -16 -76 0 -9 -3 -15 -7 -13 -4 3 -6 -13
-4 -35 1 -23 -2 -40 -8 -40 -6 0 -7 -3 -4 -7 4 -3 2 -12 -4 -20 -6 -7 -9 -26
-6 -43 4 -16 2 -32 -4 -36 -6 -3 -9 -18 -8 -32 2 -15 1 -32 -3 -37 -21 -35
-15 -587 7 -729 3 -17 10 -62 16 -101 5 -38 15 -85 20 -102 6 -18 7 -38 3 -44
-5 -8 -3 -9 5 -5 8 5 11 3 10 -5 -1 -8 0 -21 3 -29 16 -43 47 -193 43 -201 -4
-5 -2 -9 3 -9 11 0 45 -80 38 -88 -3 -3 -1 -11 5 -18 15 -18 49 -115 49 -141
0 -12 6 -28 13 -35 6 -7 14 -22 15 -33 2 -11 15 -39 28 -62 13 -24 26 -53 28
-66 7 -34 17 -57 27 -57 5 0 9 -6 9 -12 0 -7 9 -24 20 -38 11 -14 20 -35 20
-47 0 -13 5 -23 10 -23 6 0 10 -6 10 -14 0 -8 5 -16 11 -18 7 -2 12 -18 13
-36 0 -18 6 -32 14 -32 6 0 12 -7 12 -15 0 -8 9 -29 19 -47 11 -17 18 -35 15
-40 -3 -4 -1 -8 4 -8 9 0 19 -27 22 -55 1 -5 7 -19 15 -31 7 -11 16 -34 18
-50 11 -59 31 -134 36 -134 4 0 27 17 53 38 25 20 62 50 83 65 42 33 47 21
-61 148 -147 175 -297 422 -395 654 -52 123 -107 283 -133 390 -106 427 -117
883 -31 1295 68 326 215 677 404 965 139 214 403 501 601 657 635 498 1423
694 2223 554 621 -109 1230 -469 1646 -971 265 -320 477 -750 568 -1155 121
-537 81 -1134 -107 -1620 -12 -30 -27 -71 -34 -90 -39 -103 -154 -321 -228
-428 -16 -24 -27 -49 -25 -56 3 -7 71 -46 150 -86 80 -40 177 -97 217 -127 39
-29 75 -51 81 -47 31 19 214 449 255 599 83 307 99 427 99 765 0 264 -3 309
-23 425 -84 473 -248 852 -529 1226 -102 136 -259 386 -249 396 7 8 159 -148
252 -260 329 -394 531 -850 616 -1388 19 -124 22 -182 22 -409 0 -272 -10
-368 -59 -600 -53 -249 -155 -520 -276 -732 -60 -105 -67 -88 101 -246 66 -63
140 -142 165 -177 58 -81 100 -203 125 -365 11 -69 29 -181 40 -250 11 -69 22
-168 25 -220 3 -52 10 -131 15 -175 6 -44 17 -154 25 -245 9 -91 18 -175 20
-188 l5 -22 246 0 245 0 -4 2062 c-3 1135 -8 2097 -11 2138 -3 41 -7 82 -7 90
0 9 -13 21 -29 28 -21 9 -27 18 -23 32 6 22 -22 29 -30 8 -3 -7 -6 -3 -6 8 -1
12 -8 25 -17 28 -10 4 -14 14 -11 26 3 11 2 22 -3 25 -4 3 -10 14 -13 25 -3
11 -1 17 4 14 10 -6 2 39 -11 66 -5 8 -8 17 -7 20 3 14 -27 100 -35 100 -5 0
-7 4 -4 9 3 5 -1 12 -10 15 -10 4 -14 12 -10 22 5 13 2 15 -14 11 -24 -6 -31
3 -32 43 -1 18 -6 30 -15 30 -7 0 -12 3 -11 8 5 15 -36 111 -44 105 -5 -3 -9
1 -7 8 3 27 -1 39 -15 39 -16 0 -38 54 -28 66 4 4 1 4 -7 -1 -11 -6 -13 -3 -9
13 3 12 3 20 -1 19 -12 -4 -61 47 -61 64 0 10 -7 24 -15 33 -8 8 -15 19 -15
24 0 5 -7 15 -15 22 -9 7 -23 28 -31 46 -9 19 -20 34 -25 34 -5 0 -16 14 -24
31 -9 17 -19 28 -22 25 -7 -7 -93 108 -93 124 0 5 -4 10 -10 10 -5 0 -10 6
-10 14 0 9 -7 12 -19 9 -13 -3 -26 5 -42 29 -13 18 -28 36 -34 40 -5 4 -7 8
-4 8 7 0 -100 110 -107 110 -3 0 -2 -6 2 -12 4 -7 -2 -4 -14 6 -12 11 -22 24
-22 30 0 6 -14 22 -32 36 -17 14 -40 33 -49 44 -10 10 -23 15 -30 11 -7 -5
-10 -4 -5 3 8 13 -64 73 -77 65 -6 -3 -7 -1 -3 5 4 6 -6 18 -24 27 -16 8 -30
20 -30 25 0 6 -6 10 -13 10 -8 0 -24 11 -37 25 -13 14 -29 25 -36 25 -6 0 -18
7 -25 16 -8 9 -31 28 -53 42 -22 13 -44 28 -50 33 -21 17 -161 104 -191 119
-16 8 -37 14 -45 15 -8 0 -49 17 -90 37 -141 68 -227 107 -256 114 -16 4 -32
11 -35 17 -4 5 -18 10 -33 10 -14 1 -26 5 -26 9 0 9 -59 28 -91 28 -16 0 -29
5 -29 11 0 6 -9 9 -20 6 -13 -3 -18 -1 -13 6 4 6 0 8 -10 4 -9 -3 -19 -1 -23
4 -3 6 -15 8 -26 6 -11 -3 -54 4 -96 15 -43 11 -111 26 -152 35 -41 8 -106 21
-145 28 -38 8 -83 12 -99 9 -17 -4 -26 -2 -23 3 4 6 -13 8 -43 5 -32 -3 -55 0
-65 8 -11 9 -15 9 -15 1 0 -8 -5 -9 -19 -1 -11 5 -64 10 -118 10 -54 1 -117 5
-140 9 -24 5 -40 4 -37 0 3 -5 1 -9 -5 -9 -5 0 -13 5 -16 10 -3 6 -11 10 -16
10 -6 0 -7 -5 -3 -11 4 -8 -1 -9 -17 -4 -27 9 -319 13 -319 5z m853 -105 c146
-15 188 -22 358 -61 241 -55 497 -155 709 -278 25 -14 52 -29 60 -33 64 -29
289 -192 406 -294 462 -401 783 -949 907 -1549 45 -215 52 -290 52 -570 0
-281 -4 -331 -52 -575 -69 -356 -259 -787 -472 -1070 -71 -95 -174 -216 -179
-210 -8 8 119 266 173 350 224 349 353 685 420 1090 35 214 35 612 0 825 -79
476 -262 896 -553 1270 -61 78 -306 333 -377 391 -100 83 -295 223 -335 242
-8 4 -33 18 -55 32 -198 124 -500 243 -775 306 -131 30 -361 59 -510 65 -92 3
-175 13 -259 31 -68 15 -119 29 -113 31 69 23 401 27 595 7z m824 -439 c-1 -5
6 -12 17 -14 11 -2 16 0 12 7 -4 6 7 3 23 -7 35 -20 46 -39 31 -57 -7 -9 -2
-11 20 -10 17 1 30 -2 30 -6 0 -5 11 -4 25 1 15 6 26 6 30 0 4 -6 1 -10 -5
-10 -6 0 -8 -5 -5 -10 5 -8 11 -8 19 -1 15 13 52 -21 41 -38 -7 -12 21 -4 45
13 8 6 12 6 8 2 -4 -5 -2 -16 5 -24 10 -13 9 -14 -3 -7 -13 8 -13 6 -2 -8 8
-9 22 -19 33 -22 11 -4 16 -11 13 -17 -4 -6 -1 -9 7 -6 7 2 20 -1 29 -8 8 -7
42 -35 75 -61 95 -76 115 -95 108 -106 -4 -6 0 -8 9 -4 17 6 52 -24 43 -36 -3
-4 -2 -5 1 -2 11 8 45 -16 38 -27 -4 -5 -3 -13 2 -17 5 -3 17 -19 27 -34 10
-15 22 -25 27 -22 4 3 11 -8 15 -25 4 -16 10 -29 13 -28 19 6 52 -25 52 -47 0
-14 5 -25 10 -25 6 0 10 -5 10 -11 0 -5 -5 -7 -11 -4 -6 4 -5 -2 3 -14 7 -12
16 -21 20 -21 4 0 15 -16 24 -35 9 -19 22 -35 28 -35 7 0 21 -6 31 -14 18 -13
18 -14 0 -42 -14 -22 -15 -26 -3 -16 11 9 18 10 23 2 3 -6 11 -7 17 -4 6 4 6
-1 -1 -14 -6 -11 -11 -33 -11 -48 0 -26 -1 -26 -19 -10 -16 15 -19 15 -24 1
-4 -8 -12 -15 -19 -15 -9 0 -8 3 2 10 13 8 12 10 -2 10 -10 0 -18 5 -18 12 0
6 -3 9 -6 5 -10 -9 -42 35 -37 50 3 7 0 13 -6 13 -6 0 -11 5 -11 11 0 6 -7 17
-15 25 -8 8 -12 22 -9 32 4 10 2 13 -3 7 -13 -16 -33 -16 -33 0 0 13 -4 14
-21 5 -19 -11 -20 -10 -9 10 8 15 8 20 1 16 -16 -10 -62 40 -55 59 5 11 2 15
-7 13 -15 -3 -34 10 -79 55 -16 15 -33 27 -39 27 -6 0 -11 7 -11 15 0 9 -11
21 -25 27 -21 9 -23 14 -12 26 10 13 9 15 -6 9 -11 -4 -16 -3 -12 4 4 6 -2 13
-14 16 -12 3 -21 11 -21 17 0 6 -14 20 -31 30 -22 13 -27 21 -19 26 9 6 6 10
-9 15 -11 3 -21 11 -21 16 0 5 -4 9 -10 9 -12 0 -105 90 -93 90 4 0 0 5 -10
11 -9 5 -21 8 -26 5 -14 -9 -31 18 -33 57 -2 27 -6 33 -15 25 -13 -10 -14 -9
-17 11 0 5 -5 13 -10 18 -5 5 -6 3 -2 -4 4 -7 3 -13 -2 -13 -12 0 -37 30 -26
30 5 0 2 5 -6 10 -8 5 -15 15 -15 22 0 7 -9 13 -20 13 -11 0 -20 -6 -20 -14 0
-28 -23 -21 -42 11 -14 23 -17 41 -12 60 7 25 -6 35 -21 17 -3 -4 -12 0 -20 9
-13 14 -13 15 1 10 9 -3 21 -3 28 1 17 11 40 9 38 -3z m963 -906 c0 -5 -4 -10
-10 -10 -5 0 -10 5 -10 10 0 6 5 10 10 10 6 0 10 -4 10 -10z m8 -105 c-3 -3
-9 2 -12 12 -6 14 -5 15 5 6 7 -7 10 -15 7 -18z m41 -58 c0 -9 -2 -8 -6 1 -2
6 -10 9 -15 6 -7 -4 -8 -2 -4 5 9 13 26 5 25 -12z m925 -682 c-4 -8 -8 -15
-10 -15 -2 0 -4 7 -4 15 0 8 4 15 10 15 5 0 7 -7 4 -15z"/>
<path d="M5105 5930 c-3 -6 1 -7 9 -4 10 4 16 1 16 -8 0 -7 9 -19 21 -26 19
-12 19 -12 -2 17 -24 33 -34 37 -44 21z"/>
<path d="M2935 6399 c-590 -48 -1100 -250 -1540 -613 -290 -238 -544 -558
-706 -886 -139 -284 -209 -506 -260 -835 -27 -172 -30 -574 -5 -735 64 -411
154 -666 371 -1049 64 -113 286 -411 306 -411 14 0 11 12 -10 34 -64 70 -191
379 -254 621 -90 341 -113 741 -62 1087 13 92 28 184 34 205 5 21 17 70 26
108 21 84 56 200 85 275 12 30 25 67 30 82 12 39 134 288 172 350 141 236 264
395 448 578 122 123 332 303 374 320 6 3 32 19 56 36 104 73 436 250 448 240
1 -2 -16 -35 -39 -74 -25 -43 -46 -69 -54 -66 -16 7 -232 -120 -357 -209 -300
-215 -559 -487 -747 -784 -245 -390 -386 -832 -409 -1281 -24 -475 49 -870
242 -1307 36 -82 70 -153 75 -158 6 -6 36 7 83 35 89 55 140 81 193 98 75 23
156 63 152 75 -3 6 -28 46 -55 88 -28 43 -77 130 -110 195 -51 101 -80 168
-147 342 -20 51 -51 155 -69 230 -69 295 -81 394 -81 695 0 188 4 281 18 375
35 238 97 474 182 683 28 68 113 185 192 267 l54 55 -57 -115 c-148 -299 -224
-530 -281 -860 -26 -151 -26 -647 0 -800 39 -227 80 -385 147 -560 12 -30 27
-71 35 -92 47 -128 240 -472 259 -461 15 8 190 116 195 120 3 2 -1 9 -7 15 -9
9 -12 9 -12 -2 0 -10 -3 -11 -11 -3 -6 6 -18 9 -25 6 -8 -3 -22 1 -31 8 -14
12 -16 12 -8 -1 4 -8 -4 -4 -19 10 -15 14 -31 24 -34 23 -12 -2 -57 25 -54 34
1 4 -1 8 -6 8 -31 0 -126 125 -149 198 -3 9 -10 17 -15 17 -5 0 -7 4 -4 9 7
11 -47 150 -61 160 -6 3 -16 24 -23 46 -6 22 -21 58 -31 80 -10 22 -19 50 -19
63 0 12 -4 22 -9 22 -13 0 -25 39 -22 73 1 16 -2 26 -7 23 -4 -2 -8 12 -9 32
-2 65 -5 92 -12 88 -3 -2 -7 28 -9 67 -2 39 -6 76 -10 81 -4 6 -7 14 -8 19 -1
4 -3 10 -4 15 -7 18 -11 91 -16 277 -5 185 2 282 21 329 6 14 5 17 -4 11 -10
-6 -10 -3 0 16 7 13 13 35 14 49 2 25 8 62 25 135 5 22 14 68 21 103 6 34 15
62 19 62 4 0 10 14 14 32 15 76 27 108 38 102 7 -4 8 -3 4 4 -4 6 1 24 11 39
10 15 12 24 6 20 -7 -5 -13 -5 -13 -2 0 15 45 105 53 105 5 0 5 5 2 10 -3 6
-1 10 5 10 6 0 8 5 5 10 -3 6 -1 10 5 10 6 0 9 4 6 8 -3 5 6 25 19 44 13 20
22 38 19 41 -3 3 4 10 15 16 19 10 51 59 52 78 0 5 9 17 19 28 11 12 25 36 31
54 6 18 17 30 24 28 6 -3 12 1 12 9 0 7 -5 10 -11 7 -6 -4 -3 3 8 15 10 12 22
19 27 17 4 -3 11 0 15 6 5 8 2 10 -7 5 -8 -4 -6 -1 4 7 10 9 18 18 18 21 -3
24 0 30 8 17 7 -11 11 -10 19 5 5 11 9 22 9 26 -1 4 17 20 41 37 23 17 42 36
42 42 0 5 -5 7 -12 3 -7 -4 -8 -3 -4 4 4 6 12 9 19 6 7 -2 29 12 49 32 24 23
41 33 50 28 7 -4 10 -4 7 0 -7 7 36 56 47 56 3 0 18 9 34 20 15 11 30 17 34
13 3 -3 6 -1 6 6 0 7 5 9 10 6 6 -4 16 -2 23 3 25 19 111 42 121 32 6 -6 17
-4 30 8 20 16 20 16 6 -2 -14 -18 -13 -19 3 -13 10 4 21 7 23 7 2 0 5 12 5 28
1 18 3 21 6 9 3 -10 -2 -51 -10 -90 -33 -156 -50 -376 -28 -362 8 4 27 -64 46
-163 2 -12 7 -27 11 -33 3 -6 6 -43 5 -82 -1 -39 3 -85 9 -102 6 -17 12 -50
14 -75 6 -64 7 -68 16 -40 l8 25 1 -26 c1 -14 6 -30 13 -37 9 -9 7 -21 -9 -54
-19 -40 -20 -52 -13 -158 6 -81 16 -137 34 -188 30 -88 65 -152 82 -152 24 0
63 -45 54 -61 -5 -7 -14 -14 -20 -14 -5 0 -10 -3 -10 -7 0 -5 0 -12 0 -16 0
-13 47 -32 80 -32 28 0 29 -2 25 -32 -3 -19 -2 -26 2 -18 17 33 31 20 27 -25
-3 -25 0 -45 5 -45 5 0 11 -8 14 -17 10 -31 73 -161 85 -175 6 -8 13 -24 15
-35 2 -12 9 -28 16 -37 7 -8 9 -21 5 -27 -4 -7 -3 -9 3 -6 13 8 29 -301 19
-360 -18 -101 -18 -192 -1 -245 24 -74 125 -282 236 -488 53 -96 108 -201 123
-232 15 -32 40 -67 56 -78 29 -21 45 -26 36 -12 -3 5 -10 46 -15 92 -6 45 -15
88 -20 94 -15 18 -41 98 -41 127 0 15 -9 46 -20 70 -11 24 -20 57 -20 72 0 16
-4 26 -9 22 -6 -3 -12 9 -15 27 -15 101 18 131 52 48 11 -27 25 -50 31 -50 6
0 8 -7 5 -14 -7 -17 26 -77 37 -70 5 3 13 -10 18 -28 5 -18 10 -27 10 -19 1
15 41 -25 41 -41 0 -4 7 -8 15 -8 8 0 24 -9 34 -19 11 -11 22 -17 25 -14 3 3
10 -6 16 -21 5 -15 14 -24 20 -21 5 3 10 0 10 -7 0 -7 7 -2 16 10 8 12 12 28
8 34 -11 17 -9 47 4 78 6 15 6 29 1 35 -5 5 -9 19 -9 31 0 14 -17 36 -44 60
-25 21 -42 42 -40 46 3 5 6 32 7 61 2 41 9 61 32 92 17 21 23 35 15 30 -16 -9
12 28 43 56 9 9 17 21 17 28 0 6 7 11 15 11 22 0 18 27 -7 44 -12 9 -17 16
-10 16 9 0 10 5 2 19 -14 27 -13 31 10 31 11 0 20 4 20 9 0 17 50 19 61 2 9
-14 10 -14 5 2 -4 11 0 17 11 17 27 0 87 24 108 43 11 10 43 30 70 44 28 14
52 28 55 32 3 3 12 7 20 9 31 6 70 25 70 34 0 5 4 7 9 3 5 -3 12 4 16 14 4 12
12 18 21 14 7 -3 14 -1 14 5 0 5 51 61 113 123 148 150 169 176 156 201 -10
19 -29 16 -29 -5 0 -7 -15 -29 -33 -49 -17 -20 -40 -49 -50 -63 -10 -14 -26
-25 -37 -25 -10 0 -22 -5 -25 -10 -4 -6 -12 -10 -18 -9 -21 4 -47 -13 -47 -28
0 -10 -7 -14 -19 -10 -14 3 -17 0 -14 -13 3 -10 0 -21 -6 -24 -7 -5 -8 -1 -4
10 4 12 3 15 -5 10 -8 -4 -12 0 -12 11 0 15 -2 15 -9 3 -6 -8 -7 -19 -4 -25 3
-5 0 -4 -8 3 -18 17 -39 15 -55 -5 -12 -16 -15 -16 -24 -3 -8 13 -11 12 -16
-6 -4 -15 -11 -20 -25 -17 -11 3 -19 0 -19 -6 0 -7 5 -9 10 -6 6 3 10 1 10 -4
0 -20 -20 -11 -29 13 -11 28 -41 43 -41 20 0 -8 -5 -12 -11 -8 -6 3 -8 18 -5
33 3 14 3 21 0 14 -8 -19 -34 -3 -34 21 -1 11 -8 32 -16 46 -14 23 -13 12 2
-25 3 -6 -7 -22 -22 -35 l-27 -25 7 28 c4 19 3 26 -4 22 -5 -3 -10 0 -10 7 0
10 -3 9 -11 -2 -8 -11 -9 -6 -5 20 5 31 4 33 -8 17 -7 -9 -20 -15 -28 -12 -9
4 -22 0 -29 -8 -8 -8 -22 -13 -32 -11 -9 1 -17 -2 -17 -7 0 -5 -4 -9 -10 -9
-5 0 -10 7 -10 16 0 8 -4 13 -9 9 -5 -3 -12 -1 -16 5 -4 6 -11 8 -16 5 -5 -4
-9 -1 -9 4 0 6 -6 10 -12 9 -7 -2 -12 5 -10 15 2 9 -1 17 -7 17 -5 0 -14 13
-19 30 -8 21 -16 28 -26 24 -11 -4 -16 0 -16 14 0 18 6 20 44 17 51 -3 66 -10
66 -31 0 -8 3 -13 8 -12 4 0 15 -2 26 -7 12 -5 21 -3 27 6 4 8 12 14 16 15 58
5 103 19 103 30 0 8 3 13 8 13 39 -6 70 3 75 23 11 40 -9 59 -61 58 -75 0 -80
1 -86 17 -6 14 -9 14 -26 -2 -17 -16 -20 -16 -20 -2 0 12 -8 15 -35 12 -19 -2
-32 1 -29 6 3 5 -4 10 -15 11 -12 0 -27 1 -33 2 -7 1 -19 7 -27 14 -33 31 31
42 134 24 24 -5 62 -3 95 5 55 13 120 8 120 -8 0 -5 23 -9 50 -9 45 0 52 -3
62 -27 7 -16 20 -36 30 -46 10 -10 18 -26 18 -36 0 -10 12 -24 28 -31 50 -24
57 -20 59 29 2 57 7 91 18 114 4 11 3 23 -4 30 -6 6 -11 23 -11 38 0 20 -5 27
-17 25 -10 -2 -26 5 -37 16 -21 19 -52 25 -41 8 3 -6 -1 -7 -9 -4 -9 3 -16 15
-16 25 0 10 -4 19 -10 19 -5 0 -10 -5 -10 -10 0 -6 -12 -8 -27 -4 -19 4 -24 3
-15 -4 14 -10 42 -58 42 -73 0 -19 -45 -8 -114 27 -72 38 -135 47 -171 26 -12
-6 -33 -3 -68 10 -49 19 -51 19 -101 -1 -76 -29 -100 -35 -92 -22 4 6 16 11
27 11 10 0 19 4 19 9 0 5 12 14 28 20 15 6 42 20 60 31 18 11 32 15 32 9 0 -8
5 -8 15 1 8 6 20 8 26 4 7 -4 9 -3 5 4 -3 6 7 17 24 25 33 17 35 15 20 -13 -8
-15 -5 -19 16 -24 15 -4 35 -1 48 6 15 10 27 11 44 4 12 -6 22 -14 22 -18 0
-4 7 -5 15 -2 8 4 12 10 9 15 -3 5 0 9 6 9 8 0 10 -9 6 -25 -6 -25 -6 -26 18
-10 23 15 24 15 34 -12 6 -15 11 -22 11 -15 1 21 -18 52 -33 52 -7 0 -22 20
-35 44 -13 27 -34 51 -52 60 -26 13 -30 13 -25 1 3 -9 0 -12 -10 -8 -7 3 -14
10 -14 15 0 6 -7 7 -15 4 -9 -3 -18 1 -22 10 -5 13 -7 13 -23 -1 -12 -11 -20
-13 -25 -6 -3 6 2 14 12 18 10 3 26 14 36 25 16 16 16 18 1 18 -19 0 -68 34
-104 71 -14 15 -39 30 -57 33 -26 4 -33 2 -38 -15 -12 -36 -109 -65 -121 -36
-7 21 12 64 41 89 14 12 25 27 25 34 0 6 7 17 15 24 13 11 18 10 29 -6 8 -10
11 -25 8 -33 -3 -8 -1 -12 5 -8 15 10 24 67 13 85 -8 15 -9 13 -10 -6 0 -20
-4 -22 -22 -17 -27 9 -47 25 -30 25 6 0 9 6 6 14 -3 8 -1 17 5 21 6 3 11 14
11 23 0 9 -12 -8 -27 -38 -15 -30 -30 -57 -33 -60 -7 -5 -21 -38 -25 -56 -2
-5 -12 -30 -24 -54 -11 -24 -21 -54 -21 -65 0 -24 37 -69 58 -71 29 -2 32 -5
32 -30 0 -14 -4 -23 -9 -20 -12 8 -30 -16 -41 -51 -7 -24 -8 -25 -9 -5 -1 28
-17 29 -24 1 -4 -16 -11 -19 -26 -14 -13 4 -21 2 -21 -5 0 -7 -7 -10 -15 -6
-8 3 -15 0 -15 -6 0 -6 -3 -9 -6 -5 -3 3 -15 -3 -27 -13 -11 -11 -23 -17 -28
-15 -4 3 -18 -7 -30 -21 -13 -14 -32 -33 -42 -42 -11 -10 -23 -26 -27 -37 -8
-18 -9 -17 -9 8 -1 15 -6 27 -11 27 -6 0 -8 -11 -4 -26 5 -19 4 -25 -5 -20 -6
4 -11 16 -11 27 0 11 -4 17 -10 14 -6 -4 -8 6 -6 23 2 20 -3 33 -16 41 -17 10
-18 9 -12 -14 4 -16 2 -25 -6 -25 -6 0 -8 -5 -5 -10 4 -6 11 -8 16 -5 5 4 9 2
9 -3 0 -6 -8 -13 -17 -16 -20 -8 -43 17 -43 47 0 11 -4 15 -12 11 -8 -5 -9 -2
-5 10 4 9 3 15 -2 12 -10 -7 -25 22 -22 42 3 16 -29 70 -46 76 -7 3 -13 -1
-13 -9 0 -8 -7 -15 -16 -15 -13 0 -13 3 -2 19 18 26 12 92 -8 84 -10 -4 -12 0
-7 13 3 11 11 23 17 27 6 5 0 5 -13 2 -16 -5 -21 -4 -17 4 4 6 2 19 -4 28 -11
17 -11 17 -6 1 3 -11 -2 -21 -12 -27 -16 -8 -19 -2 -31 47 -20 90 -22 96 -31
82 -16 -26 -23 126 -12 255 12 144 40 251 65 249 9 -1 13 4 11 10 -3 7 4 21
16 31 11 10 20 15 20 12 0 -4 9 2 20 13 11 11 20 25 20 31 0 5 5 7 10 4 6 -3
10 3 10 13 0 11 7 25 15 32 8 7 13 16 10 20 -3 5 6 22 20 38 13 16 22 32 18
35 -3 4 2 9 11 13 9 3 13 10 10 15 -3 5 1 6 9 3 10 -4 14 3 13 24 -1 17 -4 28
-7 26 -3 -2 -6 3 -6 11 0 8 4 12 7 10 4 -3 10 16 13 42 3 29 12 52 23 61 17
13 17 14 2 9 -10 -4 -18 -2 -18 3 0 6 5 11 10 11 6 1 14 2 19 3 16 2 25 16 10
16 -9 1 -7 6 8 19 12 10 21 24 21 32 -3 45 2 57 21 52 16 -4 19 -1 14 18 -4
14 -2 20 5 15 6 -3 17 3 25 14 7 11 17 17 20 13 4 -3 7 -2 7 3 0 5 10 10 23
11 50 3 134 16 191 28 34 6 63 8 64 4 2 -5 10 -9 18 -9 10 0 12 5 8 13 -6 9
-4 9 8 -1 9 -7 19 -9 22 -4 6 10 30 9 63 -2 16 -5 41 1 82 21 33 16 57 25 55
21 -3 -4 10 -1 28 6 27 11 86 15 96 6 1 -1 10 -3 20 -4 9 -1 22 -4 27 -8 13
-8 131 -1 147 8 6 4 9 3 5 -2 -3 -5 28 -10 71 -11 110 -3 136 -7 144 -18 8
-12 42 -17 116 -19 28 0 52 -4 52 -8 0 -4 8 -9 18 -12 14 -5 17 -20 20 -88 1
-46 3 -90 3 -98 0 -8 -2 -40 -6 -70 -4 -30 -7 -107 -8 -170 -2 -94 2 -128 20
-185 49 -155 83 -274 93 -324 13 -70 12 -245 -1 -296 -6 -22 -15 -64 -20 -94
-5 -29 -15 -63 -21 -75 -16 -28 -20 -45 -21 -78 0 -16 -4 -28 -8 -28 -5 0 -9
-11 -9 -24 0 -36 -61 -219 -78 -233 -8 -7 -16 -34 -19 -60 l-5 -48 17 30 c9
17 29 42 44 56 16 14 30 32 33 40 3 8 8 11 12 8 7 -7 -8 -39 -40 -84 -36 -52
-45 -95 -51 -255 l-5 -155 48 -27 c106 -60 124 -91 244 -412 11 -29 28 -60 38
-68 9 -9 121 -68 247 -132 127 -63 289 -149 362 -191 72 -41 135 -75 140 -75
20 0 152 238 229 411 158 357 234 714 234 1103 0 285 -36 531 -117 796 -152
498 -431 924 -833 1272 -360 313 -750 504 -1230 602 -196 41 -497 60 -685 45z
m450 -27 c28 -9 27 -10 -30 -21 -95 -20 -291 -78 -395 -117 -354 -133 -658
-330 -957 -618 -67 -65 -162 -150 -210 -188 -48 -39 -100 -82 -115 -96 -57
-53 -14 25 67 124 349 423 757 708 1270 886 139 48 141 48 240 43 55 -3 114
-9 130 -13z m-999 -171 c20 -15 23 -47 3 -35 -5 3 -9 -2 -9 -10 0 -9 -6 -16
-14 -16 -8 0 -18 -5 -22 -12 -5 -7 -3 -8 7 -3 8 5 5 -1 -5 -13 -11 -12 -24
-22 -30 -22 -6 0 -5 4 2 9 11 7 11 9 -1 14 -10 4 -14 0 -12 -11 3 -17 -39 -62
-57 -62 -5 0 -7 -4 -4 -8 2 -4 -5 -9 -17 -9 -12 -1 -23 -7 -25 -13 -9 -26
-139 -136 -155 -132 -7 2 -9 1 -5 -3 7 -8 -39 -55 -53 -55 -5 0 -9 -8 -9 -17
0 -9 -3 -13 -6 -10 -4 4 -20 -10 -35 -30 -16 -20 -29 -32 -29 -27 0 5 -13 -6
-30 -24 -16 -18 -30 -37 -30 -43 0 -5 -7 -9 -15 -9 -8 0 -15 -7 -15 -15 0 -8
-5 -15 -12 -15 -7 0 -42 -30 -77 -67 -36 -38 -69 -67 -73 -66 -4 2 -5 -3 -2
-11 3 -7 -3 -19 -12 -27 -16 -12 -17 -12 -9 1 8 13 6 13 -8 1 -9 -7 -15 -17
-12 -21 2 -4 -6 -16 -18 -27 -30 -27 -87 -91 -87 -98 0 -7 -11 -20 -59 -73
-18 -20 -40 -50 -49 -67 -20 -40 -63 -97 -84 -113 -10 -7 -18 -18 -18 -24 0
-6 -14 -26 -30 -45 -17 -19 -28 -38 -25 -44 4 -5 -1 -12 -9 -15 -9 -3 -13 -10
-10 -15 3 -5 0 -9 -5 -9 -6 0 -11 -6 -11 -14 0 -7 -7 -19 -15 -26 -8 -7 -13
-15 -10 -19 2 -4 -16 -30 -41 -57 -24 -27 -47 -61 -51 -76 -3 -15 -12 -33 -19
-39 -8 -6 -14 -20 -14 -30 0 -10 -5 -21 -11 -24 -16 -10 -60 -116 -52 -128 3
-6 1 -7 -5 -3 -7 4 -13 0 -14 -11 0 -10 -2 -22 -3 -28 -2 -5 -3 -16 -4 -23 0
-7 -5 -10 -11 -7 -10 6 -14 -7 -11 -33 1 -8 -2 -19 -7 -25 -4 -7 -14 -31 -22
-54 -7 -24 -16 -43 -19 -43 -4 0 -7 -8 -8 -19 -2 -27 -31 -91 -41 -91 -4 0 -8
-10 -8 -22 0 -23 -4 -39 -27 -128 -13 -49 -14 -55 -16 -71 0 -5 -6 -7 -11 -4
-7 4 -8 -3 -4 -20 4 -17 1 -32 -10 -44 -9 -10 -15 -29 -14 -42 2 -31 -24 -179
-31 -174 -3 1 -7 -20 -8 -48 -4 -119 -6 -129 -14 -115 -6 8 -7 -14 -5 -54 2
-37 1 -70 -2 -73 -10 -10 -8 -39 3 -47 6 -5 5 -8 -3 -8 -9 0 -12 -21 -11 -76
1 -55 -2 -79 -12 -85 -8 -5 -9 -9 -4 -9 6 0 10 -13 10 -30 0 -16 -4 -30 -9
-30 -4 0 -6 -11 -4 -25 3 -13 1 -22 -3 -19 -5 3 -9 -4 -9 -14 0 -11 -7 -22
-15 -26 -8 -3 -15 -10 -15 -15 0 -6 7 -8 15 -5 10 4 15 0 15 -15 0 -12 -5 -21
-10 -21 -6 0 -14 -10 -19 -22 -7 -19 -10 -17 -24 24 -8 26 -12 50 -9 54 4 4 1
4 -6 0 -6 -4 -12 -2 -12 4 0 7 -7 10 -15 6 -12 -4 -13 -2 -5 13 7 15 6 20 -6
25 -9 3 -14 12 -11 19 2 6 -2 20 -11 30 -12 14 -13 17 -1 17 10 0 11 2 2 8
-14 9 -53 176 -53 229 0 21 -5 54 -11 73 -6 19 -12 51 -13 70 -2 19 -6 43 -11
53 -12 28 0 389 14 415 8 16 8 22 1 22 -7 0 -9 8 -5 19 3 11 10 52 15 93 5 40
18 115 29 167 12 52 19 96 17 98 -2 3 2 20 10 39 8 19 15 37 15 41 1 5 5 18
10 31 5 13 9 30 9 38 0 8 4 22 9 32 12 22 49 123 53 142 2 8 7 18 11 21 4 3
19 39 33 80 14 40 29 76 35 79 5 4 12 17 14 30 2 13 9 26 13 29 11 7 57 95 51
98 -2 1 6 12 19 25 12 14 19 28 15 31 -3 4 -1 7 5 7 7 0 12 7 12 15 0 8 4 15
9 15 5 0 11 8 15 18 7 20 24 47 51 79 11 13 27 37 36 53 28 50 72 100 83 93 6
-3 8 -3 4 2 -7 8 64 104 105 142 12 12 35 37 51 57 15 20 32 33 37 30 5 -3 9
0 9 6 0 18 185 189 197 182 3 -2 13 8 23 22 9 15 20 23 23 19 4 -3 7 -1 7 5 0
7 5 12 10 12 6 0 16 5 23 10 41 36 194 140 204 140 7 0 13 5 13 11 0 5 5 7 10
4 6 -3 10 -1 10 4 0 6 7 11 15 11 8 0 15 5 15 10 0 6 9 10 19 10 21 0 91 37
103 55 4 5 8 7 8 2 0 -4 18 2 40 13 23 11 46 18 52 14 6 -4 8 -3 5 2 -3 6 9
16 26 23 18 7 46 19 62 26 66 29 85 35 85 24 0 -6 7 -3 16 5 18 19 38 21 29 4
-4 -7 0 -6 7 3 7 9 22 18 33 20 36 7 100 -3 121 -20z m989 -18 c6 -1 24 -7 40
-12 24 -9 14 -10 -52 -8 -46 2 -83 0 -83 -4 0 -4 -14 -12 -30 -18 -22 -7 -29
-7 -24 1 5 8 -2 9 -22 3 -52 -13 -139 -23 -149 -17 -5 4 -36 5 -67 4 -49 -2
-57 0 -52 13 7 17 6 17 54 21 21 1 42 -4 53 -13 15 -15 17 -15 17 1 0 14 3 14
21 4 16 -10 23 -10 26 -1 2 7 14 8 31 4 14 -4 45 -4 69 -1 27 4 43 3 43 -3 0
-6 6 -4 13 5 15 19 55 30 63 17 9 -16 24 -10 17 8 -5 12 -3 14 8 7 8 -4 19 -9
24 -11z m285 -23 c5 0 12 5 16 11 3 6 24 9 45 7 22 -2 39 0 39 4 0 5 7 8 16 8
8 0 12 -4 9 -10 -3 -5 0 -7 7 -5 8 3 22 -1 33 -9 18 -14 16 -15 -37 -14 -36 0
-58 5 -58 12 0 7 -3 7 -8 -1 -5 -7 -45 -14 -104 -17 -53 -3 -100 -7 -105 -8
-9 -3 -13 5 -13 30 0 13 2 14 9 3 6 -8 16 -11 31 -6 15 5 25 2 31 -6 7 -11 9
-11 9 -1 0 9 7 11 20 7 14 -5 20 -2 20 10 0 15 1 15 16 1 8 -9 19 -16 24 -16z
m350 -7 c0 -2 -6 -1 -12 3 -8 4 -10 3 -5 -2 8 -9 12 -10 38 -13 6 0 9 -8 6
-15 -4 -10 -1 -13 9 -9 8 3 21 0 29 -7 12 -10 15 -10 16 1 0 10 2 11 6 2 2 -7
13 -13 24 -13 11 0 24 -10 29 -22 5 -13 9 -17 9 -10 1 20 18 14 24 -9 3 -12
10 -18 17 -14 6 4 17 2 25 -5 10 -8 16 -7 23 5 8 15 12 13 33 -15 57 -76 107
-113 96 -70 -3 11 -1 18 4 14 5 -3 9 -14 9 -24 0 -13 6 -18 24 -16 17 2 23 -1
19 -10 -3 -8 -1 -14 5 -14 5 0 23 -13 38 -29 17 -16 83 -51 154 -81 141 -60
278 -130 330 -169 66 -48 227 -227 216 -239 -3 -2 -29 13 -58 34 -161 120
-538 329 -546 304 -3 -8 -8 -8 -17 0 -9 8 -14 6 -19 -6 -4 -11 0 -18 14 -21
12 -3 27 -18 35 -33 18 -34 45 -163 45 -212 0 -20 4 -39 9 -42 5 -3 7 -16 4
-29 -4 -20 -3 -21 7 -3 9 13 9 24 1 42 -14 31 2 31 22 0 15 -22 57 -42 57 -28
0 4 18 7 39 7 22 0 37 -3 34 -7 -2 -5 5 -8 16 -8 15 0 19 -5 15 -17 -4 -12 -3
-14 3 -6 9 12 64 13 56 0 -2 -4 4 -10 14 -14 10 -4 28 -17 41 -30 13 -13 27
-23 32 -23 4 0 55 -47 112 -104 111 -112 138 -142 138 -155 0 -4 15 -28 32
-52 18 -24 33 -46 33 -49 3 -19 18 -50 24 -50 4 0 13 -16 20 -35 7 -19 16 -35
21 -35 4 0 11 -11 14 -25 4 -16 11 -23 18 -19 7 5 9 2 5 -9 -3 -9 -2 -19 4
-22 10 -7 49 -83 49 -97 0 -5 -6 -6 -12 -1 -7 4 -5 -5 5 -20 9 -14 17 -33 17
-41 0 -9 8 -35 19 -58 48 -108 51 -119 39 -112 -10 6 -10 4 -2 -7 14 -17 24
-70 13 -63 -12 7 -11 -9 0 -22 15 -15 25 -58 12 -50 -6 4 -11 2 -11 -3 0 -6 6
-11 13 -11 7 0 13 -14 14 -32 1 -18 6 -55 12 -82 6 -26 8 -59 5 -72 -3 -13 -3
-32 1 -41 4 -10 7 -66 7 -125 1 -70 4 -108 11 -108 7 0 7 -4 -1 -12 -7 -7 -12
-43 -12 -91 0 -43 -5 -88 -11 -100 -9 -16 -9 -22 0 -25 6 -2 11 -15 11 -29 0
-17 -4 -23 -13 -20 -9 3 -13 -6 -14 -30 -1 -33 -17 -108 -31 -143 -3 -8 -6
-22 -8 -30 -6 -50 -47 -238 -63 -288 -6 -19 -6 -30 0 -27 5 4 9 -1 9 -10 0 -9
-5 -13 -10 -10 -6 3 -12 0 -14 -7 -18 -64 -41 -128 -46 -128 -4 0 -7 -7 -7
-15 0 -8 4 -12 9 -9 4 3 8 -2 8 -11 0 -9 -4 -14 -9 -11 -9 6 -34 -46 -34 -70
0 -7 -4 -11 -8 -9 -4 3 -12 -9 -18 -25 -5 -17 -20 -34 -33 -40 -18 -7 -19 -9
-5 -9 17 -1 16 -2 -2 -22 -11 -12 -24 -18 -30 -14 -20 12 -33 -6 -14 -21 10
-7 13 -14 7 -14 -7 0 -26 -13 -43 -29 -32 -30 -74 -44 -88 -30 -4 4 -27 9 -50
10 -26 2 -45 9 -48 17 -3 8 -8 12 -12 8 -3 -3 -17 1 -30 9 -13 9 -23 13 -23
10 0 -3 -10 3 -22 15 -22 20 -32 24 -56 21 -8 -1 -16 7 -19 18 -3 12 -10 21
-15 21 -5 0 -6 -5 -2 -12 5 -7 3 -8 -6 -3 -7 4 -16 2 -20 -5 -9 -15 -90 54
-90 77 0 8 -4 12 -9 8 -5 -3 -13 5 -17 17 -3 12 -13 28 -20 36 -8 7 -12 18 -9
23 4 5 -5 9 -19 9 -29 0 -33 9 -13 29 10 10 9 12 -3 9 -8 -2 -16 4 -16 12 -1
8 -3 20 -4 25 -1 6 -2 14 -1 18 1 5 -3 6 -8 2 -6 -3 -18 3 -28 15 -10 11 -23
20 -30 20 -6 0 -15 9 -18 20 -4 11 -11 17 -17 14 -6 -4 -5 2 1 15 9 16 9 21 0
19 -6 -2 -22 17 -34 41 -18 35 -24 40 -27 25 -3 -10 -5 -3 -5 16 0 47 -20 93
-36 87 -8 -3 -14 0 -14 6 0 7 -4 20 -8 30 -5 12 -3 17 5 15 7 -2 15 3 18 11 3
10 0 12 -12 8 -9 -4 -17 -2 -17 3 -6 42 -2 71 10 75 7 3 10 12 7 21 -8 20 3
66 14 59 5 -3 6 5 2 17 -3 14 -1 19 6 14 7 -4 10 -2 7 7 -3 7 3 22 15 32 22
20 26 50 8 59 -7 4 -4 5 8 2 17 -3 21 2 22 25 1 37 10 52 28 45 14 -5 18 5 14
33 -1 7 17 40 40 72 23 32 38 59 33 59 -4 0 3 7 15 16 13 9 21 22 18 30 -3 8
3 23 13 33 11 11 17 22 14 25 -4 3 2 15 12 26 10 11 15 20 10 20 -4 0 -1 8 6
17 12 15 12 16 -3 10 -15 -5 -16 -4 -6 13 9 14 14 16 20 7 8 -12 12 9 9 48 -2
17 0 18 9 5 9 -12 10 -11 5 8 -4 13 -2 22 5 22 6 0 8 11 4 28 -4 20 -3 23 4
13 8 -11 12 -6 17 22 4 20 11 37 17 37 5 0 6 5 2 11 -4 8 -9 7 -15 -2 -5 -8
-9 -9 -9 -3 0 5 6 16 13 23 10 11 9 13 -2 9 -8 -2 -19 -17 -24 -34 -5 -16 -32
-76 -59 -133 -27 -58 -59 -130 -70 -160 -49 -132 -92 -166 -165 -131 -41 19
-43 22 -43 63 0 79 50 167 94 167 23 0 43 34 50 83 8 51 5 55 -18 31 -15 -14
-16 -14 -16 0 0 9 -5 16 -11 16 -7 0 -9 -11 -5 -30 3 -17 1 -42 -5 -58 -9 -24
-11 -25 -20 -9 -12 20 15 124 35 142 7 6 12 21 13 34 1 13 9 31 17 40 9 10 26
37 39 62 59 112 126 4 85 -136 l-12 -40 -6 40 c-5 35 -27 89 -31 75 0 -3 -1
-43 -2 -90 -2 -89 -23 -150 -67 -198 -11 -11 -20 -26 -20 -32 0 -45 99 92 145
200 41 95 56 200 36 239 -7 12 -26 30 -42 40 -28 17 -29 20 -14 35 9 9 21 13
26 10 6 -3 9 0 8 7 -1 8 4 28 11 44 52 122 84 244 75 287 -4 15 -3 33 1 40 4
6 7 38 7 70 -1 32 3 58 7 58 12 0 22 -18 12 -22 -4 -1 -2 -14 6 -28 13 -24 13
-23 9 17 -3 26 -1 43 6 46 7 2 3 15 -10 33 -12 17 -25 42 -28 57 -4 14 -18 33
-31 42 -23 15 -35 43 -13 29 7 -4 10 -1 7 7 -3 8 -11 13 -18 11 -8 -2 -10 3
-7 12 4 9 1 15 -6 13 -7 -1 -11 3 -10 10 1 6 -13 28 -33 50 -22 24 -33 45 -30
56 3 13 0 17 -10 13 -17 -7 -17 -4 -1 37 10 25 11 46 3 92 -6 33 -15 59 -19
57 -5 -1 -10 23 -11 53 -2 33 1 52 7 48 5 -3 8 0 5 8 -3 8 -15 15 -27 17 -16
3 -20 8 -16 23 4 10 -2 36 -13 56 -11 21 -30 63 -43 93 -32 74 -112 175 -160
202 -21 12 -39 25 -39 30 0 4 -7 8 -15 8 -8 0 -15 6 -16 13 0 9 -2 9 -6 -1 -4
-10 -8 -10 -19 -1 -7 6 -20 9 -28 6 -9 -3 -16 2 -19 15 -3 11 -10 17 -16 13
-6 -3 -11 -2 -11 2 0 5 -20 14 -44 21 -24 6 -51 19 -60 28 -9 9 -23 13 -31 10
-8 -3 -15 -1 -15 4 0 6 -3 9 -7 8 -5 -1 -38 8 -75 20 -37 12 -74 22 -83 22 -8
0 -15 4 -15 9 0 10 28 8 67 -4 18 -6 25 -2 33 19 9 26 10 26 35 10 14 -9 25
-18 25 -21z m-533 1 c-3 -3 -12 -4 -19 -1 -8 3 -5 6 6 6 11 1 17 -2 13 -5z
m-572 -27 c-9 -5 -19 -6 -22 -3 -4 3 -12 1 -20 -6 -15 -12 -28 -5 -19 11 4 6
23 10 42 9 28 -1 32 -3 19 -11z m-160 -57 c-10 -11 -23 -20 -29 -20 -6 0 0 9
14 20 32 25 38 25 15 0z m-50 -30 c-3 -5 -27 -24 -53 -41 -26 -17 -37 -22 -24
-11 12 11 22 26 22 33 0 7 3 9 6 6 4 -3 16 0 28 8 24 18 29 19 21 5z m-177
-150 c-7 -10 -14 -17 -17 -15 -4 4 18 35 25 35 2 0 -1 -9 -8 -20z m-171 -282
c-3 -8 -6 -5 -6 6 -1 11 2 17 5 13 3 -3 4 -12 1 -19z m-19 -72 c-7 -25 -15
-46 -19 -46 -4 0 0 22 9 50 20 62 27 59 10 -4z m2465 -584 c12 -6 8 -19 -7
-19 -9 0 -19 18 -25 44 -7 24 -16 41 -21 38 -6 -4 -7 1 -3 11 5 14 11 8 27
-27 12 -24 24 -45 29 -47z m-3203 -56 c0 -3 -4 -8 -10 -11 -5 -3 -10 -1 -10 4
0 6 5 11 10 11 6 0 10 -2 10 -4z m1747 -966 c2 -24 -8 -32 -27 -19 -13 8 -12
12 4 24 11 8 20 15 21 15 0 0 1 -9 2 -20z m73 0 c0 -5 -3 -10 -7 -11 -5 0 -16
-2 -25 -4 -20 -4 -24 11 -5 18 21 9 37 7 37 -3z m82 -82 c-8 -8 -9 -4 -5 13 4
13 8 18 11 10 2 -7 -1 -18 -6 -23z m-735 -20 c-3 -8 -6 -5 -6 6 -1 11 2 17 5
13 3 -3 4 -12 1 -19z m-1729 -188 c2 21 5 30 10 23 5 -7 5 -37 2 -67 -4 -36
-2 -54 5 -53 5 1 9 -2 8 -8 -2 -15 -5 -88 -4 -103 1 -7 5 -11 10 -8 5 3 11 -3
14 -14 3 -11 1 -18 -4 -14 -13 7 -11 -10 2 -23 6 -6 13 -58 15 -118 2 -61 8
-113 15 -121 9 -11 8 -14 -2 -14 -10 0 -10 -3 -1 -12 7 -7 12 -24 12 -39 0
-15 5 -29 12 -31 7 -3 13 -16 13 -29 1 -14 4 -29 7 -35 4 -7 19 -72 22 -96 1
-3 4 -10 9 -14 4 -4 7 -16 7 -26 0 -10 4 -18 8 -18 4 0 13 -18 19 -40 5 -22 6
-40 2 -40 -5 0 -5 -8 1 -17 5 -10 14 -37 20 -60 6 -24 15 -43 19 -43 5 0 11
-17 15 -37 3 -21 29 -85 57 -143 28 -58 51 -117 51 -132 0 -16 3 -28 7 -28 7
0 7 -15 2 -91 -1 -8 -8 -24 -17 -35 -8 -10 -12 -12 -8 -4 6 12 4 13 -7 3 -7
-7 -21 -13 -31 -13 -10 0 -18 -7 -18 -16 0 -11 -6 -14 -22 -8 -44 13 -152 119
-144 141 3 8 2 12 -3 8 -5 -3 -19 15 -31 40 -14 28 -26 42 -33 38 -9 -5 -9 -3
-1 8 8 10 8 20 -1 36 -6 13 -14 21 -16 18 -3 -2 -6 8 -7 23 -1 15 -7 29 -12
30 -6 2 -10 12 -10 22 0 10 -4 22 -10 25 -5 3 -10 19 -10 36 0 16 -5 29 -11
29 -5 0 -8 4 -4 9 3 5 1 12 -5 16 -6 4 -8 11 -4 16 3 5 0 26 -7 47 -7 20 -12
47 -10 60 1 12 -3 22 -9 22 -6 0 -8 5 -5 10 3 6 2 10 -3 10 -5 0 -8 35 -7 78
1 85 -3 114 -15 107 -5 -3 -6 16 -3 41 3 33 1 50 -9 56 -10 8 -11 11 0 15 10
4 10 8 1 19 -6 8 -9 23 -6 34 3 11 1 18 -3 15 -13 -8 -18 17 -9 48 4 16 9 78
10 138 1 70 6 105 11 97 6 -8 8 15 4 62 -3 49 -2 70 4 60 7 -11 10 -7 10 17 0
17 5 44 10 59 8 20 8 29 -1 35 -9 5 -8 13 4 29 14 20 16 21 21 3 3 -10 4 -4 2
14 -1 18 1 30 6 27 4 -3 10 7 14 21 3 13 10 22 15 19 5 -3 10 3 11 13 1 10 5
-22 8 -72 3 -49 7 -74 8 -55z m3359 48 c-3 -8 -6 -5 -6 6 -1 11 2 17 5 13 3
-3 4 -12 1 -19z m-767 1 c0 -5 -4 -7 -10 -4 -5 3 -10 1 -10 -6 0 -7 -3 -10 -6
-6 -8 7 4 27 17 27 5 0 9 -5 9 -11z m757 -51 c-3 -8 -6 -5 -6 6 -1 11 2 17 5
13 3 -3 4 -12 1 -19z m-14 -43 c-3 -9 -8 -14 -10 -11 -3 3 -2 9 2 15 9 16 15
13 8 -4z m-3306 -17 c-3 -8 -6 -5 -6 6 -1 11 2 17 5 13 3 -3 4 -12 1 -19z
m2228 12 c3 -5 -1 -10 -9 -10 -8 0 -18 5 -21 10 -3 6 1 10 9 10 8 0 18 -4 21
-10z m2282 -147 c-3 -10 -5 -4 -5 12 0 17 2 24 5 18 2 -7 2 -21 0 -30z m-2396
-65 c1 -22 1 -22 9 2 7 21 8 22 10 5 1 -11 4 -15 6 -9 3 7 14 10 25 7 14 -4
18 -11 14 -22 -4 -9 -12 -28 -17 -43 -10 -29 -22 -35 -33 -18 -10 17 -25 11
-18 -7 3 -10 -6 -3 -21 16 -14 19 -26 44 -25 55 0 20 1 20 8 2 7 -19 8 -19 16
0 4 10 7 22 7 27 -1 4 3 7 8 7 6 0 10 -10 11 -22z m306 -140 c-3 -8 -6 -5 -6
6 -1 11 2 17 5 13 3 -3 4 -12 1 -19z m-2796 -260 c-3 -21 -6 -26 -9 -15 -3 17
3 47 11 47 2 0 1 -15 -2 -32z m9 -58 c0 -5 -2 -10 -4 -10 -3 0 -8 5 -11 10 -3
6 -1 10 4 10 6 0 11 -4 11 -10z m-23 -16 c-3 -3 -12 -4 -19 -1 -8 3 -5 6 6 6
11 1 17 -2 13 -5z m-9 -27 c14 4 14 3 2 -5 -16 -12 -30 -7 -29 11 0 9 2 9 5 0
3 -7 13 -9 22 -6z m2462 -292 c-7 -8 -16 -15 -21 -15 -5 0 -6 7 -3 15 4 8 13
15 21 15 13 0 13 -3 3 -15z m1994 -74 c4 -5 -3 -7 -14 -4 -23 6 -26 13 -6 13
8 0 17 -4 20 -9z"/>
<path d="M2345 6190 c3 -5 8 -10 11 -10 2 0 4 5 4 10 0 6 -5 10 -11 10 -5 0
-7 -4 -4 -10z"/>
<path d="M621 2944 c0 -11 3 -14 6 -6 3 7 2 16 -1 19 -3 4 -6 -2 -5 -13z"/>
<path d="M4110 6080 c0 -5 5 -10 11 -10 5 0 7 5 4 10 -3 6 -8 10 -11 10 -2 0
-4 -4 -4 -10z"/>
<path d="M4577 5609 c4 -13 8 -18 11 -10 2 7 -1 18 -6 23 -8 8 -9 4 -5 -13z"/>
<path d="M4770 4562 c0 -18 4 -32 8 -32 10 0 10 46 0 56 -5 4 -8 -7 -8 -24z"/>
<path d="M4750 4503 c0 -8 -4 -12 -9 -8 -15 9 -23 -13 -12 -33 8 -14 5 -22
-10 -32 -23 -17 -24 -38 -3 -65 18 -24 32 -77 36 -132 1 -23 4 -40 7 -38 5 5
6 18 15 193 3 51 8 97 11 102 3 6 1 10 -5 10 -6 0 -9 4 -6 8 3 5 -1 9 -9 9 -8
0 -15 -7 -15 -14z"/>
<path d="M4560 3670 c0 -5 4 -10 9 -10 6 0 13 5 16 10 3 6 -1 10 -9 10 -9 0
-16 -4 -16 -10z"/>
<path d="M4500 3569 c0 -5 5 -7 10 -4 6 3 10 8 10 11 0 2 -4 4 -10 4 -5 0 -10
-5 -10 -11z"/>
<path d="M4400 3274 c0 -8 5 -12 10 -9 6 4 8 11 5 16 -9 14 -15 11 -15 -7z"/>
<path d="M4801 2654 c6 -7 16 -11 21 -8 11 7 3 17 -18 20 -12 2 -13 -1 -3 -12z"/>
<path d="M1067 3288 c-2 -7 -1 -22 4 -33 6 -16 8 -14 8 13 1 33 -4 41 -12 20z"/>
<path d="M1186 2777 c3 -10 9 -15 12 -12 3 3 0 11 -7 18 -10 9 -11 8 -5 -6z"/>
<path d="M2835 4773 c-28 -20 -59 -46 -70 -58 -73 -80 -96 -110 -86 -113 6 -2
18 -10 26 -19 8 -8 20 -11 26 -7 7 4 9 3 6 -3 -4 -6 0 -13 8 -17 12 -4 13 -10
3 -31 -6 -14 -18 -25 -25 -25 -11 0 -13 -8 -8 -32 10 -45 33 -68 68 -68 17 0
38 -7 47 -15 23 -20 151 -43 218 -38 58 4 162 44 162 62 0 6 7 11 15 11 8 0
17 11 21 25 4 18 13 25 30 25 29 0 30 -9 3 -61 -11 -23 -19 -43 -16 -45 2 -2
15 -5 30 -6 16 -1 28 -10 32 -23 6 -19 7 -19 18 5 6 14 20 34 31 45 28 31 56
96 56 136 0 36 -19 89 -32 89 -5 0 -8 9 -8 21 0 11 4 18 9 14 5 -3 13 0 17 6
4 7 3 9 -4 5 -6 -3 -17 3 -25 14 -7 11 -16 17 -19 14 -4 -3 -9 4 -13 17 -6 17
-9 19 -16 8 -6 -11 -9 -9 -9 8 0 12 -4 25 -10 28 -5 3 -10 1 -10 -5 0 -6 -10
-4 -24 5 -32 21 -77 29 -166 28 -43 0 -79 5 -83 11 -6 8 -10 7 -14 -1 -2 -7
-9 -13 -14 -13 -6 0 -7 5 -3 11 5 8 -9 10 -50 6 -41 -4 -58 -1 -64 8 -5 11
-19 5 -57 -22z m273 -126 c9 -11 2 -14 -37 -16 -27 -1 -63 -6 -79 -10 -30 -9
-52 1 -52 23 0 5 3 7 6 4 3 -3 17 -3 32 1 48 13 119 12 130 -2z m-18 -97 c0
-5 -7 -10 -16 -10 -8 0 -12 5 -9 10 3 6 10 10 16 10 5 0 9 -4 9 -10z m113 -37
c4 -7 16 -13 25 -14 9 0 -7 -7 -37 -15 -30 -8 -56 -12 -58 -10 -3 2 0 13 6 24
6 12 11 31 11 43 0 22 0 22 23 3 12 -10 26 -25 30 -31z m-215 -39 l27 -25 -34
13 c-19 8 -36 19 -39 26 -6 20 18 13 46 -14z m212 -24 c0 -5 -14 -10 -31 -10
-17 0 -28 4 -24 10 3 6 17 10 31 10 13 0 24 -4 24 -10z m40 6 c0 -3 -4 -8 -10
-11 -5 -3 -10 -1 -10 4 0 6 5 11 10 11 6 0 10 -2 10 -4z m-110 -16 c0 -5 -5
-10 -11 -10 -5 0 -7 5 -4 10 3 6 8 10 11 10 2 0 4 -4 4 -10z"/>
<path d="M3787 4743 c-13 -13 -17 -14 -17 -3 0 10 -4 8 -13 -5 -10 -13 -16
-15 -21 -6 -6 9 -11 9 -22 0 -8 -6 -14 -8 -15 -3 0 5 -4 0 -9 -11 -8 -18 -9
-18 -10 5 -2 22 -3 20 -12 -10 -5 -19 -10 -43 -11 -52 -1 -9 -5 -14 -9 -12 -4
3 -8 0 -8 -5 0 -6 5 -11 11 -11 13 0 10 -69 -4 -88 -7 -9 -5 -11 8 -6 13 5 16
4 11 -4 -4 -7 -2 -10 7 -6 8 3 18 -5 24 -20 10 -20 8 -27 -9 -46 -15 -16 -17
-25 -9 -33 8 -8 11 -7 11 6 0 19 35 23 60 7 13 -9 13 -10 0 -10 -9 0 3 -17 28
-40 24 -22 47 -38 53 -35 5 4 9 2 9 -4 0 -5 11 -8 25 -6 14 1 25 -1 25 -5 0
-12 93 -6 97 6 4 13 -44 40 -54 31 -7 -7 -43 21 -43 33 0 4 19 7 43 8 35 1 47
8 73 36 28 32 32 34 51 21 26 -18 21 -67 -6 -57 -14 5 -14 4 -1 -12 14 -17 15
-17 23 2 8 17 14 18 45 10 63 -16 67 -15 67 12 0 36 -32 77 -83 105 -50 28
-52 29 -52 15 0 -5 6 -10 13 -10 8 0 31 -16 53 -36 l39 -36 -40 23 c-72 41
-84 50 -79 63 3 9 -22 19 -83 33 -86 20 -87 20 -58 33 66 28 122 29 245 6 47
-9 70 -20 70 -32 0 -17 26 -19 36 -3 4 8 9 7 16 -2 6 -10 7 -6 3 11 -4 14 -14
32 -22 40 -12 13 -13 13 -7 -4 4 -11 -10 -2 -36 22 -39 39 -79 57 -166 77 -11
2 -29 7 -40 10 -12 4 -25 2 -28 -4 -5 -7 -15 -7 -32 -1 -46 18 -77 19 -98 5
-26 -19 -40 -19 -32 0 7 19 4 19 -17 -2z m168 -223 c3 -5 1 -10 -4 -10 -6 0
-11 5 -11 10 0 6 2 10 4 10 3 0 8 -4 11 -10z m-92 -45 c19 -39 15 -41 -37 -20
-32 14 -35 17 -24 35 19 30 42 24 61 -15z"/>
<path d="M3633 4678 c1 -10 2 -18 4 -18 1 0 7 8 12 18 7 14 6 19 -4 19 -7 0
-13 -9 -12 -19z"/>
<path d="M2680 4580 c0 -5 5 -10 11 -10 5 0 7 5 4 10 -3 6 -8 10 -11 10 -2 0
-4 -4 -4 -10z"/>
<path d="M3690 4401 c0 -6 4 -13 10 -16 6 -3 7 1 4 9 -7 18 -14 21 -14 7z"/>
<path d="M3603 3998 c-32 -16 -28 -24 11 -25 19 -1 49 -8 67 -17 39 -20 73
-20 88 -2 9 11 3 18 -32 35 -47 23 -99 26 -134 9z"/>
<path d="M2770 3910 c0 -8 5 -22 10 -30 9 -13 10 -13 10 0 0 8 -5 22 -10 30
-9 13 -10 13 -10 0z"/>
<path d="M1262 3500 c0 -14 2 -19 5 -12 2 6 2 18 0 25 -3 6 -5 1 -5 -13z"/>
<path d="M2779 3365 c-5 -20 -3 -65 4 -65 4 0 7 16 7 35 0 29 -7 48 -11 30z"/>
<path d="M2780 3151 c0 -6 4 -13 10 -16 6 -3 7 1 4 9 -7 18 -14 21 -14 7z"/>
<path d="M2780 3049 c0 -17 -5 -39 -10 -49 -8 -16 -8 -18 5 -14 8 4 15 9 16
13 6 40 6 81 -2 81 -5 0 -9 -14 -9 -31z"/>
<path d="M4258 2923 l-3 -138 -42 -86 c-23 -48 -46 -90 -52 -94 -6 -3 -11 -13
-11 -21 0 -8 -11 -27 -25 -42 -14 -15 -25 -34 -25 -44 0 -9 -8 -22 -17 -27
-10 -6 -14 -11 -9 -11 6 0 0 -9 -13 -21 -17 -16 -21 -27 -16 -50 7 -31 -10
-42 -18 -11 -4 13 -5 11 -6 -5 -1 -25 -16 -31 -24 -10 -3 7 -6 6 -6 -5 -1 -9
4 -20 9 -23 18 -11 12 -55 -8 -55 -20 0 -60 -40 -55 -55 1 -6 -15 -18 -37 -28
-42 -20 -45 -28 -31 -90 7 -31 6 -39 -9 -50 -10 -7 -21 -29 -25 -50 -4 -20
-10 -37 -14 -37 -8 0 -10 -6 -15 -55 -5 -44 -19 -81 -66 -178 -27 -55 -31 -70
-20 -77 11 -7 11 -11 1 -24 -7 -8 -11 -27 -9 -41 l3 -27 29 23 c24 19 26 23
12 31 -20 11 -20 26 -2 64 8 16 31 65 51 109 20 44 43 87 52 97 9 10 13 18 9
18 -4 0 1 12 12 28 10 15 26 41 34 57 52 99 150 280 186 342 44 76 69 120 110
193 14 25 35 61 47 80 55 87 137 259 142 295 4 35 1 46 -23 74 -23 28 -94 81
-108 81 -2 0 -6 -62 -8 -137z"/>
<path d="M2698 2789 c-10 -10 -18 -23 -18 -27 0 -8 -47 -66 -92 -114 -21 -21
-16 -22 51 -6 43 10 52 16 60 42 10 31 24 127 19 125 -2 0 -11 -9 -20 -20z"/>
<path d="M2681 2614 c0 -11 3 -14 6 -6 3 7 2 16 -1 19 -3 4 -6 -2 -5 -13z"/>
<path d="M2661 2561 c-6 -10 -11 -46 -13 -80 -1 -33 -5 -61 -8 -61 -9 0 1 -59
10 -65 8 -5 20 54 18 85 -1 8 2 43 6 78 7 64 4 75 -13 43z"/>
<path d="M3971 2328 c-1 -10 -5 -18 -10 -18 -5 0 -11 -7 -15 -15 -3 -8 -1 -15
4 -15 13 0 32 39 26 53 -2 7 -5 4 -5 -5z"/>
<path d="M2667 2240 c3 -52 7 -97 9 -99 7 -8 3 92 -6 144 -6 36 -7 23 -3 -45z"/>
<path d="M3017 2121 c-34 -31 -90 -134 -114 -210 -7 -24 -13 -75 -13 -112 0
-61 2 -67 19 -62 11 3 22 12 25 20 3 8 10 11 16 8 6 -4 8 -11 5 -16 -4 -5 0
-9 8 -9 10 0 13 7 10 19 -4 17 -2 18 30 8 32 -10 38 -20 86 -128 28 -65 76
-164 107 -221 30 -57 76 -145 101 -195 l45 -93 -11 -232 c-6 -128 -10 -267 -9
-308 l1 -75 8 90 c4 50 7 144 8 210 1 148 34 416 62 510 13 43 35 87 56 113
21 26 32 47 26 50 -92 59 -124 107 -92 139 7 7 9 19 5 28 -4 12 -10 14 -25 5
-29 -15 -34 -13 -27 14 4 18 1 28 -11 35 -10 6 -13 11 -5 11 8 0 5 15 -12 48
-13 26 -27 62 -31 81 -4 20 -14 35 -26 38 -10 3 -19 11 -19 19 0 7 -18 34 -40
59 -44 51 -70 95 -70 120 0 20 -44 65 -64 65 -9 0 -30 -13 -49 -29z m147 -200
c22 -24 32 -86 16 -96 -7 -4 -21 2 -34 14 -17 18 -17 21 -3 15 21 -8 21 -1 0
39 -15 29 -17 30 -24 12 -7 -19 -8 -19 -8 2 -1 19 9 29 30 32 3 1 14 -7 23
-18z m53 -3 c-3 -8 -6 -5 -6 6 -1 11 2 17 5 13 3 -3 4 -12 1 -19z m-109 -181
l11 -22 0 22 1 23 32 -20 c18 -11 49 -43 69 -72 20 -29 39 -51 43 -48 7 5 40
-46 41 -62 0 -16 55 -58 73 -58 11 0 30 -8 42 -18 l22 -18 -30 -60 c-24 -45
-34 -82 -43 -159 -6 -55 -13 -101 -14 -103 -2 -2 -10 11 -18 30 -9 18 -57 121
-107 228 -100 212 -160 347 -160 361 0 15 27 -2 38 -24z"/>
<path d="M2715 1995 c4 -27 13 -78 21 -113 8 -35 14 -78 14 -95 0 -24 3 -28
10 -17 8 13 10 12 10 -2 0 -10 5 -18 11 -18 13 0 13 -5 -31 165 -35 132 -46
157 -35 80z"/>
<path d="M4082 2024 c-31 -13 -40 -28 -52 -87 -7 -36 -7 -37 10 -22 17 15 19
15 25 -4 6 -20 -28 -101 -44 -101 -7 0 -61 -78 -87 -125 -22 -40 -78 -130 -90
-145 -8 -9 -16 -33 -20 -55 -3 -21 -10 -50 -15 -64 l-9 -26 20 24 c11 13 20
31 20 40 0 9 23 49 50 88 28 39 50 77 50 84 0 6 11 27 25 45 14 18 25 35 25
37 0 2 15 20 34 40 19 20 42 54 53 76 13 29 25 40 46 43 21 4 26 1 22 -11 -5
-16 43 -51 70 -51 7 0 44 -13 82 -28 49 -20 77 -26 91 -21 14 5 22 4 22 -2 0
-6 4 -7 10 -4 5 3 20 -1 34 -10 29 -19 38 -9 38 41 0 32 2 33 27 28 25 -6 25
-6 6 8 -11 8 -42 28 -70 44 -27 16 -85 54 -129 85 -71 51 -156 88 -198 86 -9
0 -30 -6 -46 -13z"/>
<path d="M2016 1855 c-9 -26 -7 -32 5 -12 6 10 9 21 6 23 -2 3 -7 -2 -11 -11z"/>
<path d="M4557 1799 c7 -7 15 -10 18 -7 3 3 -2 9 -12 12 -14 6 -15 5 -6 -5z"/>
<path d="M1434 1758 c18 -37 21 -59 20 -163 -1 -66 -7 -147 -13 -180 -11 -59
-37 -265 -43 -335 -2 -19 -8 -34 -14 -33 -6 1 -9 -20 -7 -59 2 -34 -1 -66 -6
-72 -12 -15 -17 -133 -7 -167 5 -19 3 -31 -10 -44 -17 -16 -17 -20 0 -69 29
-86 17 -97 -29 -26 -35 54 -41 59 -52 44 -11 -15 -13 -14 -19 10 -6 26 -44 57
-44 37 0 -5 4 -12 10 -16 5 -3 17 -30 26 -60 19 -61 31 -69 37 -28 3 27 4 27
23 -14 10 -24 24 -43 31 -43 22 0 27 -42 7 -57 -16 -12 -16 -13 -1 -13 9 0 17
-3 18 -7 1 -5 3 -28 5 -53 1 -25 5 -57 8 -72 7 -36 -11 -36 -41 -1 l-23 28 6
-30 c10 -43 23 -65 39 -65 8 0 19 -9 25 -20 9 -16 8 -20 -5 -20 -20 0 -19 -15
5 -90 11 -34 20 -80 20 -101 0 -32 3 -39 20 -39 17 0 20 7 20 48 0 26 -5 92
-10 146 -7 71 -7 103 1 113 10 11 6 17 -12 15 -3 -1 -6 4 -6 11 0 7 -3 41 -7
77 -5 51 -4 60 4 40 10 -23 12 -23 21 -7 12 20 4 37 -17 37 -24 0 -16 17 11
24 14 4 23 11 20 16 -4 6 -11 8 -16 5 -5 -4 -9 -1 -9 5 0 6 -4 8 -10 5 -5 -3
-10 -5 -11 -3 -13 83 -6 176 12 147 5 -8 6 -21 3 -31 -2 -9 -1 -19 5 -22 5 -3
8 12 7 37 -1 28 -5 41 -13 40 -16 -4 -17 9 -1 25 9 9 7 16 -7 32 -16 18 -17
31 -11 132 4 62 12 135 17 163 5 27 12 73 15 100 2 28 7 64 9 80 49 308 45
565 -8 565 -11 0 -10 -9 7 -42z"/>
<path d="M1982 1778 c-17 -22 -62 -124 -62 -142 0 -9 -7 -31 -16 -47 -8 -17
-14 -35 -12 -41 4 -10 46 81 89 195 19 48 19 57 1 35z"/>
<path d="M3666 1625 c-11 -8 -15 -15 -9 -15 6 0 16 7 23 15 16 19 11 19 -14 0z"/>
<path d="M840 1570 c-6 -12 -8 -30 -4 -42 5 -17 3 -20 -10 -15 -19 8 -21 -19
-5 -77 8 -28 13 -36 19 -25 8 14 21 179 14 179 -2 0 -8 -9 -14 -20z"/>
<path d="M910 1562 c0 -4 14 -21 32 -38 l31 -29 -22 32 c-23 35 -41 50 -41 35z"/>
<path d="M3672 1533 c-6 -20 -7 -32 -2 -27 10 10 25 64 18 64 -3 0 -10 -16
-16 -37z"/>
<path d="M1852 1488 c-6 -6 -12 -19 -12 -27 0 -13 2 -13 16 1 9 9 15 21 13 27
-3 9 -8 8 -17 -1z"/>
<path d="M933 1473 c39 -119 47 -165 46 -258 -1 -102 15 -171 56 -241 9 -16
13 -20 9 -9 -4 11 -12 53 -17 93 -6 39 -14 72 -19 72 -4 0 -8 5 -8 11 0 5 5 7
11 3 8 -5 10 3 5 27 -3 19 -8 68 -11 109 -7 96 -11 116 -38 168 -22 41 -45 58
-34 25z"/>
<path d="M3535 1460 c-16 -4 -23 -9 -15 -10 25 -4 72 1 94 10 17 7 15 9 -14 8
-19 0 -48 -4 -65 -8z"/>
<path d="M3744 1425 c-4 -14 -4 -29 0 -32 3 -4 6 1 6 10 0 10 5 17 10 17 6 0
10 7 10 15 0 25 -19 17 -26 -10z"/>
<path d="M797 1411 c-3 -13 -1 -18 9 -14 7 2 10 11 7 19 -7 19 -10 18 -16 -5z"/>
<path d="M860 1277 c0 -7 6 -37 14 -67 7 -30 13 -79 13 -108 1 -55 15 -84 39
-75 7 3 11 9 9 14 -3 5 -8 25 -11 46 -2 20 -9 53 -14 72 -5 20 -14 57 -21 84
-11 43 -29 65 -29 34z"/>
<path d="M932 955 c2 -28 8 -41 20 -43 15 -3 16 1 8 29 -15 53 -32 61 -28 14z"/>
<path d="M1156 943 c9 -27 18 -69 21 -95 3 -26 9 -45 14 -42 5 3 9 1 9 -5 0
-5 -4 -11 -10 -13 -15 -5 12 -52 37 -63 12 -5 26 -18 32 -30 8 -16 10 -17 10
-3 1 9 -10 25 -23 35 -26 19 -46 73 -28 73 12 0 -2 58 -18 74 -5 5 -10 18 -10
28 0 22 -31 88 -41 88 -5 0 -1 -21 7 -47z"/>
<path d="M3543 963 c-21 -8 -15 -39 7 -39 11 0 20 4 20 8 0 4 -4 8 -10 8 -5 0
-7 7 -4 15 6 16 6 16 -13 8z"/>
<path d="M3461 944 c0 -11 3 -14 6 -6 3 7 2 16 -1 19 -3 4 -6 -2 -5 -13z"/>
<path d="M945 830 c-3 -5 1 -10 9 -10 9 0 16 5 16 10 0 6 -4 10 -9 10 -6 0
-13 -4 -16 -10z"/>
<path d="M820 721 c0 -6 5 -11 11 -11 11 0 39 -24 39 -34 0 -13 38 -50 85 -83
28 -19 65 -45 84 -59 39 -28 51 -30 51 -9 0 8 -9 15 -20 15 -11 0 -19 3 -18 8
4 11 -75 102 -88 102 -4 0 -21 15 -36 33 -16 17 -26 25 -22 17 6 -12 3 -11
-12 2 -24 21 -74 34 -74 19z"/>
<path d="M596 685 c-4 -22 -12 -56 -17 -75 -5 -19 -9 -48 -9 -65 1 -29 1 -29
21 13 15 32 19 59 17 105 -3 61 -3 61 -12 22z"/>
<path d="M6157 713 c-8 -13 12 -55 23 -48 7 4 6 14 -1 28 -15 29 -16 30 -22
20z"/>
<path d="M668 659 c-6 -16 9 -56 30 -81 9 -10 11 -18 6 -18 -5 0 -2 -5 8 -10
9 -6 14 -18 11 -29 -4 -15 1 -20 19 -23 16 -2 22 -9 20 -21 -2 -9 2 -16 8 -15
6 2 21 -22 32 -52 12 -30 30 -68 42 -85 12 -16 29 -46 40 -65 29 -56 79 -118
106 -132 14 -7 32 -22 42 -33 9 -11 19 -17 23 -13 5 5 -91 149 -142 213 -4 6
-8 16 -9 23 -2 28 -5 32 -18 32 -8 0 -17 12 -21 28 -3 15 -16 37 -28 50 -23
24 -28 52 -13 63 15 11 -2 39 -24 39 -11 0 -20 5 -20 11 0 6 -13 22 -30 35
-16 14 -29 29 -27 32 1 4 -10 20 -24 36 -19 20 -28 24 -31 15z"/>
<path d="M1690 631 c-23 -43 -11 -67 29 -61 12 1 13 -1 2 -13 -7 -10 -10 -28
-6 -49 3 -18 7 -44 8 -57 1 -13 8 -26 17 -28 12 -3 14 -14 10 -56 -3 -32 0
-65 8 -86 16 -40 13 -82 -8 -98 -13 -11 -13 -12 2 -13 9 0 19 -8 22 -17 6 -23
1 -112 -9 -135 -6 -16 0 -18 54 -18 l61 0 0 40 c0 22 6 50 13 61 9 17 9 23 0
26 -10 4 -9 10 2 26 19 27 19 71 0 90 -11 12 -12 17 -2 21 8 3 7 9 -7 20 -11
9 -16 21 -12 32 8 20 -19 64 -39 64 -18 0 -20 46 -2 54 9 5 9 7 -2 12 -11 5
-11 8 0 15 11 7 11 9 -2 9 -23 0 -33 27 -42 110 -1 17 -9 26 -24 28 -13 2 -23
8 -23 13 0 6 -9 5 -21 -2 -20 -10 -21 -9 -16 10 7 26 1 27 -13 2z"/>
<path d="M1571 584 c-6 -15 -14 -47 -16 -73 -5 -45 -4 -44 9 11 7 32 19 64 26
73 7 8 8 15 3 15 -5 0 -15 -12 -22 -26z"/>
<path d="M1290 540 c0 -5 5 -10 11 -10 5 0 7 5 4 10 -3 6 -8 10 -11 10 -2 0
-4 -4 -4 -10z"/>
<path d="M6172 500 c-18 -89 -22 -135 -26 -312 -3 -93 -8 -172 -11 -178 -4 -6
5 -10 19 -10 14 0 26 3 27 8 0 4 1 96 1 205 0 109 5 219 10 246 5 28 5 58 -1
72 -7 21 -10 17 -19 -31z"/>
<path d="M3314 380 c0 -63 1 -89 3 -57 2 31 2 83 0 115 -2 31 -3 5 -3 -58z"/>
<path d="M1286 455 c-11 -8 -17 -17 -14 -20 3 -3 16 3 29 14 27 23 14 28 -15
6z"/>
<path d="M595 429 c-4 -6 -4 -31 0 -55 4 -31 2 -50 -7 -61 -8 -10 -9 -18 -3
-20 12 -4 8 -222 -5 -238 -10 -12 5 -55 20 -55 7 0 10 71 10 220 -1 121 -3
220 -5 220 -2 0 -7 -5 -10 -11z"/>
<path d="M1285 390 c3 -5 8 -10 11 -10 2 0 4 5 4 10 0 6 -5 10 -11 10 -5 0 -7
-4 -4 -10z"/>
<path d="M521 304 c0 -11 3 -14 6 -6 3 7 2 16 -1 19 -3 4 -6 -2 -5 -13z"/>
<path d="M510 259 c0 -9 -6 -29 -14 -44 -8 -15 -12 -34 -9 -43 4 -10 2 -13 -5
-8 -7 4 -10 2 -7 -7 3 -7 -1 -29 -8 -48 -8 -18 -13 -42 -12 -51 2 -10 -2 -18
-8 -18 -5 0 -7 -3 -4 -6 4 -4 23 6 43 21 l36 27 -4 74 c-3 43 -1 75 5 77 7 2
6 10 -1 23 -9 15 -11 16 -12 3z"/>
<path d="M5762 261 c-7 -4 -12 -12 -11 -17 4 -23 -2 -45 -11 -39 -6 3 -7 -1
-3 -10 4 -13 8 -14 14 -4 4 8 11 10 15 7 3 -4 13 -1 20 7 16 15 19 29 5 20 -5
-3 -12 -1 -16 5 -3 5 0 10 8 10 8 0 17 7 21 15 6 17 -20 21 -42 6z"/>
<path d="M2077 173 c-4 -3 -7 -11 -7 -17 0 -6 5 -5 12 2 6 6 9 14 7 17 -3 3
-9 2 -12 -2z"/>
<path d="M5722 170 c-18 -4 -34 -9 -36 -11 -2 -2 -6 -39 -9 -81 l-5 -78 39 0
c35 0 39 3 39 25 0 14 6 28 13 31 9 3 12 16 9 34 -3 18 0 30 7 30 6 0 11 14
11 30 0 33 -7 35 -68 20z"/>
<path d="M3303 75 c0 -44 2 -61 4 -37 2 23 2 59 0 80 -2 20 -4 1 -4 -43z"/>
<path d="M2076 34 c-11 -28 -7 -34 24 -34 24 0 28 3 23 18 -12 32 -37 41 -47
16z"/>
<path d="M512 28 c-16 -16 -15 -28 3 -28 8 0 15 9 15 20 0 23 -2 24 -18 8z"/>
</g>
</svg>
