<svg width="220" height="220" viewBox="0 0 220 220" fill="none" xmlns="http://www.w3.org/2000/svg">
<g filter="url(#filter0_df_184_2)">
<circle cx="97" cy="97" r="75" fill="#DDC4CB" fill-opacity="0.38" shape-rendering="crispEdges"/>
</g>
<g clip-path="url(#clip0_184_2)">
<path d="M123.562 47H70.4375C57.4933 47 47 57.4933 47 70.4375V123.562C47 136.507 57.4933 147 70.4375 147H123.562C136.507 147 147 136.507 147 123.562V70.4375C147 57.4933 136.507 47 123.562 47Z" fill="#001E36"/>
<path d="M69.5 116.547V73.6719C69.5 73.3802 69.625 73.2137 69.9168 73.2137C70.625 73.2137 71.2918 73.2137 72.25 73.1719C73.25 73.1302 74.2918 73.1302 75.4168 73.0887C76.5418 73.0469 77.75 73.0469 79.0418 73.0051C80.3332 72.9637 81.5832 72.9637 82.8332 72.9637C86.25 72.9637 89.0832 73.3802 91.4168 74.2552C93.5084 74.9655 95.4156 76.1327 97 77.6719C98.3426 79.019 99.38 80.6389 100.042 82.422C100.667 84.172 101 85.9638 101 87.8388C101 91.422 100.167 94.3802 98.5 96.7138C96.8332 99.047 94.5 100.797 91.7918 101.797C88.9582 102.839 85.8332 103.214 82.4168 103.214C81.4168 103.214 80.75 103.214 80.3332 103.172C79.9168 103.13 79.3332 103.13 78.5418 103.13V116.505C78.5832 116.797 78.375 117.047 78.0832 117.089H70C69.6668 117.089 69.5 116.922 69.5 116.547ZM78.5832 81.2552V95.2552C79.1668 95.297 79.7082 95.3388 80.2082 95.3388H82.4168C84.0418 95.3388 85.6668 95.0888 87.2082 94.5888C88.5418 94.2138 89.7082 93.422 90.625 92.3802C91.5 91.3388 91.9168 89.922 91.9168 88.0888C91.9559 86.7866 91.6234 85.5002 90.9582 84.3802C90.25 83.297 89.25 82.4638 88.0418 82.0052C86.5 81.3802 84.8332 81.1302 83.125 81.172C82.0418 81.172 81.0832 81.172 80.2918 81.2138C79.4582 81.172 78.875 81.2138 78.5832 81.2552ZM127 92.7138C125.75 92.047 124.417 91.5888 123 91.297C121.458 90.9638 119.917 90.7552 118.333 90.7552C117.5 90.7138 116.625 90.8388 115.833 91.047C115.292 91.172 114.833 91.4638 114.542 91.8802C114.333 92.2138 114.208 92.6302 114.208 93.0052C114.208 93.3802 114.375 93.7552 114.625 94.0888C115 94.547 115.5 94.922 116.042 95.2138C117.008 95.7141 117.995 96.1728 119 96.5888C121.25 97.3388 123.417 98.3802 125.417 99.6302C126.792 100.505 127.917 101.672 128.708 103.089C129.375 104.422 129.708 105.88 129.667 107.38C129.708 109.339 129.125 111.297 128.042 112.922C126.88 114.585 125.258 115.874 123.375 116.63C121.333 117.505 118.833 117.964 115.833 117.964C113.917 117.964 112.042 117.797 110.167 117.422C108.697 117.168 107.268 116.72 105.917 116.089C105.625 115.922 105.417 115.63 105.458 115.297V108.047C105.458 107.922 105.5 107.755 105.625 107.672C105.75 107.589 105.875 107.63 106 107.714C107.625 108.672 109.333 109.339 111.167 109.755C112.75 110.172 114.417 110.38 116.083 110.38C117.667 110.38 118.792 110.172 119.542 109.797C120.208 109.505 120.667 108.797 120.667 108.047C120.667 107.464 120.333 106.922 119.667 106.38C119 105.839 117.625 105.214 115.583 104.422C113.489 103.684 111.5 102.675 109.667 101.422C108.361 100.491 107.279 99.2814 106.5 97.8802C105.833 96.547 105.5 95.0888 105.542 93.6302C105.542 91.8388 106.042 90.1302 106.958 88.5888C108 86.922 109.542 85.5888 111.333 84.7552C113.292 83.7552 115.75 83.297 118.708 83.297C120.417 83.297 122.167 83.422 123.875 83.672C125.125 83.8388 126.333 84.172 127.458 84.6302C127.625 84.672 127.792 84.8388 127.875 85.0052C127.917 85.172 127.958 85.3388 127.958 85.5052V92.297C127.958 92.4638 127.875 92.6302 127.75 92.7138C127.375 92.797 127.167 92.797 127 92.7138Z" fill="#31A8FF"/>
</g>
<defs>
<filter id="filter0_df_184_2" x="0" y="0" width="220" height="220" filterUnits="userSpaceOnUse" color-interpolation-filters="sRGB">
<feFlood flood-opacity="0" result="BackgroundImageFix"/>
<feColorMatrix in="SourceAlpha" type="matrix" values="0 0 0 0 0 0 0 0 0 0 0 0 0 0 0 0 0 0 127 0" result="hardAlpha"/>
<feOffset dx="13" dy="13"/>
<feGaussianBlur stdDeviation="17.5"/>
<feComposite in2="hardAlpha" operator="out"/>
<feColorMatrix type="matrix" values="0 0 0 0 0 0 0 0 0 0 0 0 0 0 0 0 0 0 0.25 0"/>
<feBlend mode="normal" in2="BackgroundImageFix" result="effect1_dropShadow_184_2"/>
<feBlend mode="normal" in="SourceGraphic" in2="effect1_dropShadow_184_2" result="shape"/>
<feGaussianBlur stdDeviation="2" result="effect2_foregroundBlur_184_2"/>
</filter>
<clipPath id="clip0_184_2">
<rect x="47" y="47" width="100" height="100" rx="50" fill="white"/>
</clipPath>
</defs>
</svg>
