<svg width="220" height="220" viewBox="0 0 220 220" fill="none" xmlns="http://www.w3.org/2000/svg">
<g filter="url(#filter0_df_110_383)">
<circle cx="97" cy="97" r="75" fill="#DDC4CB" fill-opacity="0.38" shape-rendering="crispEdges"/>
</g>
<path d="M129.22 78.412C128.156 78.0016 127.082 77.6214 126.001 77.2718C126.183 76.4376 126.35 75.6135 126.498 74.8039C128.935 61.5092 127.342 50.7987 121.901 47.2723C116.684 43.8916 108.153 47.4167 99.5363 55.8451C98.6871 56.6772 97.8568 57.5333 97.0461 58.4126C96.5034 57.8279 95.9511 57.2546 95.3895 56.6929C86.359 47.681 77.3074 43.8828 71.8723 47.4194C66.6602 50.8105 65.1168 60.8792 67.3105 73.4789C67.5288 74.7268 67.7752 75.9682 68.0496 77.202C66.7684 77.6112 65.532 78.0467 64.3488 78.5104C53.7613 82.6593 47 89.1612 47 95.9053C47 102.871 54.2586 109.857 65.2859 114.094C66.1799 114.436 67.0814 114.753 67.9895 115.044C67.6945 116.373 67.4327 117.711 67.2043 119.056C65.1129 131.437 66.7461 141.268 71.9441 144.638C77.3129 148.118 86.3238 144.541 95.0977 135.92C95.8091 135.22 96.5049 134.499 97.1844 133.759C98.0623 134.711 98.9637 135.635 99.8875 136.531C108.387 144.751 116.78 148.07 121.973 144.691C127.337 141.201 129.08 130.64 126.817 117.792C126.639 116.785 126.439 115.784 126.218 114.788C126.85 114.577 127.471 114.36 128.077 114.135C139.541 109.866 147 102.964 147 95.9053C147 89.1366 140.02 82.5909 129.22 78.412ZM126.734 109.577C126.187 109.781 125.626 109.977 125.054 110.168C123.788 105.664 122.08 100.876 119.99 95.9286C121.985 91.0991 123.627 86.3719 124.857 81.898C125.88 82.2308 126.873 82.5816 127.83 82.9517C137.084 86.5326 142.728 91.8262 142.728 95.9053C142.728 100.25 136.632 105.891 126.734 109.577ZM122.627 118.724C123.627 124.406 123.77 129.542 123.107 133.558C122.512 137.167 121.314 139.572 119.833 140.536C116.682 142.586 109.942 139.921 102.674 132.891C101.815 132.059 100.976 131.199 100.159 130.314C102.977 126.851 105.793 122.824 108.542 118.352C113.376 117.87 117.943 117.081 122.085 116.005C122.285 116.907 122.465 117.813 122.627 118.724ZM81.0922 140.182C78.0133 141.404 75.5609 141.439 74.0785 140.478C70.9242 138.433 69.6129 130.54 71.4016 119.952C71.6142 118.701 71.8576 117.456 72.1316 116.22C76.2277 117.239 80.7617 117.971 85.6074 118.413C88.3746 122.789 91.2719 126.811 94.1918 130.333C93.5713 131.008 92.936 131.666 92.2867 132.305C88.4066 136.117 84.5187 138.822 81.0922 140.182ZM66.668 109.55C61.7918 107.677 57.7648 105.243 55.0047 102.586C52.5242 100.199 51.2723 97.8284 51.2723 95.9053C51.2723 91.8126 56.7008 86.5923 65.7551 83.0444C66.8539 82.6141 68.0039 82.208 69.1973 81.8269C70.4488 86.4018 72.0902 91.1852 74.0711 96.0221C72.0645 100.931 70.3996 105.79 69.1359 110.419C68.3071 110.152 67.4842 109.863 66.668 109.55ZM71.5031 72.5565C69.6238 61.7617 70.8719 53.6187 74.0129 51.5749C77.3582 49.3981 84.7559 52.5017 92.5531 60.2834C93.0616 60.792 93.5618 61.3109 94.0535 61.8398C91.148 65.3465 88.2773 69.3387 85.5348 73.6888C80.8316 74.1787 76.3297 74.9655 72.1906 76.0197C71.9356 74.8721 71.7064 73.717 71.5031 72.5565ZM114.639 84.5284C113.661 82.6303 112.647 80.7562 111.598 78.9073C114.788 79.3608 117.845 79.9627 120.716 80.6986C119.854 83.8035 118.78 87.0494 117.516 90.3773C116.591 88.4063 115.632 86.4563 114.639 84.5284ZM97.048 65.2714C99.0184 67.6708 100.992 70.3494 102.933 73.2559C98.9953 73.0469 95.0512 73.046 91.1137 73.2532C93.0566 70.3735 95.0469 67.6984 97.048 65.2714ZM79.3445 84.5613C78.3634 86.4737 77.4221 88.4116 76.5215 90.3734C75.2777 87.0573 74.2133 83.7965 73.3441 80.6476C76.1973 79.9302 79.2398 79.3437 82.4102 78.8985C81.349 80.7587 80.3268 82.6471 79.3445 84.5613ZM82.5012 113.254C79.2258 112.843 76.1375 112.287 73.2852 111.588C74.168 108.383 75.2559 105.053 76.5266 101.666C77.4308 103.629 78.376 105.568 79.3613 107.482C80.3746 109.449 81.4238 111.375 82.5012 113.254ZM97.166 126.877C95.141 124.422 93.1215 121.706 91.1492 118.784C93.0641 118.869 95.016 118.912 97 118.912C99.0383 118.912 101.053 118.86 103.036 118.761C101.089 121.735 99.123 124.456 97.166 126.877ZM117.556 101.493C118.893 104.918 120.019 108.23 120.914 111.38C118.014 112.124 114.884 112.723 111.586 113.168C112.642 111.284 113.666 109.378 114.655 107.449C115.661 105.488 116.628 103.502 117.556 101.493ZM110.955 105.05C109.44 108.007 107.84 110.909 106.158 113.749C103.11 113.992 100.055 114.113 97 114.111C93.8879 114.111 90.8609 114.002 87.9461 113.789C86.2196 110.955 84.5892 108.049 83.0582 105.076C81.5344 102.119 80.1115 99.0983 78.7918 96.0199C80.1082 92.9409 81.5272 89.9185 83.0457 86.9594C84.5637 83.9994 86.1807 81.1058 87.8941 78.2838C90.868 78.0309 93.9176 77.8992 96.9996 77.8992C100.096 77.8992 103.15 78.0322 106.123 78.2869C107.819 81.1046 109.426 83.9887 110.941 86.9339C112.465 89.8866 113.902 92.8941 115.252 95.9519C113.916 99.0409 112.483 102.075 110.955 105.05ZM119.768 51.4318C123.116 53.6024 124.418 62.3557 122.314 73.8345C122.18 74.5669 122.029 75.3128 121.865 76.0693C117.716 74.9927 113.211 74.1924 108.494 73.6949C105.746 69.297 102.899 65.2986 100.041 61.8372C100.79 61.0256 101.557 60.2351 102.341 59.4663C109.724 52.2453 116.624 49.3942 119.768 51.4318ZM97 85.8688C101.932 85.8688 105.93 90.3624 105.93 95.9053C105.93 101.448 101.932 105.942 97 105.942C92.0684 105.942 88.0703 101.448 88.0703 95.9053C88.0703 90.3624 92.0684 85.8688 97 85.8688Z" fill="#00B5CD"/>
<defs>
<filter id="filter0_df_110_383" x="0" y="0" width="220" height="220" filterUnits="userSpaceOnUse" color-interpolation-filters="sRGB">
<feFlood flood-opacity="0" result="BackgroundImageFix"/>
<feColorMatrix in="SourceAlpha" type="matrix" values="0 0 0 0 0 0 0 0 0 0 0 0 0 0 0 0 0 0 127 0" result="hardAlpha"/>
<feOffset dx="13" dy="13"/>
<feGaussianBlur stdDeviation="17.5"/>
<feComposite in2="hardAlpha" operator="out"/>
<feColorMatrix type="matrix" values="0 0 0 0 0 0 0 0 0 0 0 0 0 0 0 0 0 0 0.25 0"/>
<feBlend mode="normal" in2="BackgroundImageFix" result="effect1_dropShadow_110_383"/>
<feBlend mode="normal" in="SourceGraphic" in2="effect1_dropShadow_110_383" result="shape"/>
<feGaussianBlur stdDeviation="2" result="effect2_foregroundBlur_110_383"/>
</filter>
</defs>
</svg>
