<svg width="171" height="90" viewBox="0 0 171 90" fill="none" xmlns="http://www.w3.org/2000/svg">
<g clip-path="url(#clip0_110_336)">
<path d="M101.029 45.0108C101.029 47.4659 99.3605 49.8205 96.3902 51.5569C93.4199 53.2933 89.391 54.2693 85.1894 54.2704C80.9866 54.2704 76.9559 53.2948 73.9841 51.5583C71.0122 49.8218 69.3427 47.4666 69.3427 45.0108C69.3427 42.5557 71.0113 40.2012 73.9816 38.4648C76.9519 36.7284 80.9808 35.7523 85.1824 35.7512C89.3852 35.7512 93.4158 36.7268 96.3877 38.4633C99.3595 40.1998 101.029 42.555 101.029 45.0108ZM119.796 0.742058C110.257 0.742058 97.7761 4.71755 85.154 11.6001C72.539 4.75482 60.0515 0.82488 50.5194 0.82488C47.6136 0.82488 44.9702 1.21001 42.681 1.97612C32.9363 5.26004 30.7534 15.4928 35.7853 28.3345C14.2121 32.2271 0.179688 38.4513 0.179688 45.0108C0.179688 51.5952 14.283 57.8359 35.9199 61.6996C30.9306 74.591 33.156 84.8403 42.922 88.1201C45.1899 88.8944 47.8121 89.2589 50.732 89.2589C60.2641 89.2589 72.7516 85.2834 85.3737 78.3925C97.9887 85.242 110.476 89.1719 120.008 89.1719C122.914 89.1719 125.558 88.7992 127.847 88.0331C137.584 84.7533 139.774 74.5206 134.742 61.6748C156.238 57.8152 170.27 51.5787 170.27 45.0108C170.27 38.4264 156.167 32.1857 134.53 28.3137C139.519 15.4348 137.294 5.17722 127.528 1.89329C125.167 1.11749 122.504 0.720318 119.796 0.742058ZM119.76 5.2559V5.28074C121.355 5.28074 122.638 5.46295 123.715 5.80667C128.435 7.38858 130.483 13.4057 128.888 21.1454C128.506 23.0504 127.882 25.0588 127.117 27.1087C119.87 26.0841 112.513 25.3453 105.097 24.8973C100.68 21.336 95.8624 17.9507 90.6748 14.7639C101.958 8.63506 112.553 5.27246 119.767 5.26004L119.76 5.2559ZM50.5194 5.33872C57.6915 5.33872 68.3363 8.68476 79.6473 14.7805C74.7856 17.7621 69.938 21.1454 65.3314 24.8932C57.8978 25.3359 50.526 26.0804 43.2692 27.1211C42.5084 25.1789 41.9076 23.2165 41.4691 21.2407C39.8391 13.505 41.8518 7.49211 46.5293 5.88949C47.8759 5.51679 49.3642 5.35943 50.5194 5.33872ZM85.1186 17.9692C88.3432 19.9072 91.5678 22.0772 94.757 24.4459C91.6387 24.3631 88.4495 24.3051 85.2249 24.3051C81.9648 24.3051 78.7402 24.3465 75.5864 24.4459C78.7047 22.0772 81.9294 19.9114 85.1186 17.9692ZM85.2249 28.8438C90.4693 28.8438 95.6925 28.9846 100.831 29.2289C103.708 31.6391 106.515 34.2107 109.215 36.9315C111.851 39.5818 114.247 42.2735 116.429 44.9901C114.247 47.7026 111.851 50.415 109.25 53.0653C106.557 55.7985 103.772 58.3991 100.887 60.8093C90.485 61.3411 80.0235 61.348 69.6191 60.83C66.6437 58.3311 63.8467 55.7614 61.235 53.1274C58.5986 50.4771 56.2032 47.7854 54.0204 45.0688C56.2104 42.3117 58.6058 39.6118 61.1996 36.977C63.8927 34.2439 66.6779 31.6515 69.5624 29.2414C74.7706 28.9724 79.9964 28.837 85.2249 28.8355V28.8438ZM59.4633 29.8957C57.7624 31.4569 56.0615 33.0554 54.4739 34.6994C52.8794 36.3144 51.3911 37.9378 49.9736 39.5611C48.0956 36.8445 46.501 34.1362 45.1828 31.4983C49.7185 30.8771 54.5023 30.3222 59.4633 29.8957ZM110.916 29.8957C115.841 30.3222 120.589 30.8481 125.132 31.4983C123.857 34.1155 122.262 36.8072 120.455 39.5031C117.563 36.2068 114.381 33 110.923 29.8957H110.916ZM132.623 32.6909C136.054 33.3121 139.314 34.0037 142.368 34.7532C154.643 37.8177 162.581 41.8263 162.581 45.0067C162.545 48.1871 154.608 52.2123 142.333 55.256C139.356 56.0014 136.096 56.6723 132.73 57.2976C130.601 53.0878 127.997 48.9652 124.934 44.957C128.123 40.7454 130.674 36.6333 132.623 32.6826V32.6909ZM37.6917 32.7075C39.6619 36.683 42.2629 40.8117 45.4875 45.0481C42.4469 49.0324 39.8753 53.1334 37.7909 57.3224C34.3608 56.7012 31.1007 56.0055 28.0816 55.2518C15.8067 52.1998 7.86919 48.1871 7.86919 45.0067C7.86919 41.8263 15.8067 37.7928 28.0816 34.7532C31.0582 34.0078 34.3182 33.3369 37.6917 32.7075ZM120.455 50.4316C122.333 53.1523 123.928 55.8647 125.246 58.4985C120.71 59.1487 115.919 59.6994 110.958 60.1135C114.412 56.9851 117.578 53.7534 120.455 50.4316ZM49.9736 50.5144C51.3911 52.1377 52.8794 53.7569 54.5094 55.3802C56.1394 56.9953 57.8049 58.5772 59.5058 60.1135C54.7271 59.7096 49.9831 59.1762 45.2891 58.5151C46.5647 55.9061 48.1664 53.2061 49.9666 50.5102L49.9736 50.5144ZM127.18 62.884C127.974 64.9255 128.598 66.8926 128.981 68.7768C130.611 76.5124 128.598 82.5254 123.92 84.1321C122.879 84.5048 121.525 84.6622 119.93 84.6622C112.758 84.6622 102.113 81.3203 90.8024 75.2204C95.6642 72.2388 100.512 68.8596 105.118 65.116C112.964 64.6274 120.384 63.8778 127.18 62.884ZM43.3401 62.9254C50.1437 63.8944 57.5568 64.6439 65.3597 65.1285C70.0372 68.8762 74.8919 72.2802 79.782 75.2577C68.4781 81.399 57.8687 84.7616 50.654 84.7616C49.2911 84.7679 47.946 84.5803 46.7348 84.215C42.0148 82.6413 39.9667 76.6201 41.5613 68.8803C41.944 66.9754 42.5747 64.9711 43.3401 62.9254ZM75.6573 65.5757C78.7756 65.6585 81.9648 65.7165 85.1894 65.7165C88.4495 65.7165 91.6741 65.6751 94.8279 65.5757C91.7096 67.9444 88.4849 70.1102 85.2957 72.0566C82.0711 70.1102 78.8465 67.9444 75.6573 65.5757Z" fill="#808080" fill-opacity="0.52"/>
</g>
<defs>
<clipPath id="clip0_110_336">
<rect width="171" height="90" fill="white"/>
</clipPath>
</defs>
</svg>
