<svg width="220" height="220" viewBox="0 0 220 220" fill="none" xmlns="http://www.w3.org/2000/svg">
<g filter="url(#filter0_df_110_386)">
<circle cx="97" cy="97" r="75" fill="#DDC4CB" fill-opacity="0.38" shape-rendering="crispEdges"/>
</g>
<g clip-path="url(#clip0_110_386)">
<path d="M116.289 116.563C119.98 116.162 122.779 112.824 122.652 108.818C122.525 104.813 119.343 101.609 115.526 101.609H115.271C111.326 101.742 108.272 105.213 108.4 109.352C108.527 111.355 109.29 113.091 110.436 114.293C106.109 123.238 99.4918 129.781 89.566 135.255C82.8215 138.993 75.8227 140.329 68.8238 139.394C63.0973 138.593 58.6434 135.923 55.8434 131.516C51.7715 124.974 51.3898 117.897 54.8258 110.821C57.2437 105.748 61.0609 102.009 63.4789 100.14C62.9699 98.4041 62.2062 95.4668 61.8246 93.3307C43.3727 107.35 45.2816 126.309 50.8809 135.255C55.0801 141.931 63.6062 146.07 73.023 146.07C75.568 146.07 78.1129 145.803 80.6582 145.136C96.9469 141.797 109.291 131.65 116.289 116.563ZM138.686 100.007C129.015 88.1233 114.762 81.5811 98.4738 81.5811H96.4379C95.2926 79.1778 92.8746 77.5754 90.2023 77.5754H89.9477C86.0031 77.709 82.9492 81.1803 83.0762 85.3196C83.2035 89.325 86.3848 92.5295 90.2023 92.5295H90.4566C93.2562 92.3959 95.6742 90.5266 96.6922 87.9897H98.9828C108.654 87.9897 117.816 90.927 126.088 96.6684C132.451 101.075 137.032 106.816 139.577 113.759C141.74 119.366 141.613 124.841 139.322 129.514C135.759 136.59 129.779 140.462 121.889 140.462C116.798 140.462 111.963 138.86 109.418 137.658C108.018 138.993 105.473 141.129 103.691 142.465C109.163 145.135 114.763 146.604 120.107 146.604C132.323 146.604 141.359 139.527 144.795 132.451C148.485 124.707 148.23 111.355 138.686 100.007ZM74.041 118.832C74.1684 122.838 77.3496 126.042 81.1672 126.042H81.4219C85.3668 125.909 88.4207 122.437 88.2934 118.298C88.1664 114.292 84.9848 111.088 81.1672 111.088H80.9129C80.6582 111.088 80.2762 111.088 80.0223 111.221C74.8047 102.142 72.6414 92.2623 73.4051 81.5807C73.9137 73.5697 76.459 66.6266 80.9129 60.8852C84.6031 55.9451 91.7293 53.5418 96.5652 53.4086C110.054 53.1414 115.78 70.7656 116.162 77.8422C117.816 78.2426 120.616 79.1774 122.525 79.8451C120.998 58.2156 108.272 47 96.0562 47C84.6031 47 74.041 55.6787 69.8414 68.4963C63.9879 85.5864 67.8055 102.009 74.9316 114.96C74.2957 115.895 73.9137 117.363 74.041 118.832Z" fill="#764ABC"/>
</g>
<defs>
<filter id="filter0_df_110_386" x="0" y="0" width="220" height="220" filterUnits="userSpaceOnUse" color-interpolation-filters="sRGB">
<feFlood flood-opacity="0" result="BackgroundImageFix"/>
<feColorMatrix in="SourceAlpha" type="matrix" values="0 0 0 0 0 0 0 0 0 0 0 0 0 0 0 0 0 0 127 0" result="hardAlpha"/>
<feOffset dx="13" dy="13"/>
<feGaussianBlur stdDeviation="17.5"/>
<feComposite in2="hardAlpha" operator="out"/>
<feColorMatrix type="matrix" values="0 0 0 0 0 0 0 0 0 0 0 0 0 0 0 0 0 0 0.25 0"/>
<feBlend mode="normal" in2="BackgroundImageFix" result="effect1_dropShadow_110_386"/>
<feBlend mode="normal" in="SourceGraphic" in2="effect1_dropShadow_110_386" result="shape"/>
<feGaussianBlur stdDeviation="2" result="effect2_foregroundBlur_110_386"/>
</filter>
<clipPath id="clip0_110_386">
<rect width="100" height="100" fill="white" transform="translate(47 47)"/>
</clipPath>
</defs>
</svg>
